<svg version="1.1" id="Layer_1" xmlns="http://www.w3.org/2000/svg" xmlns:xlink="http://www.w3.org/1999/xlink" x="0px" y="0px"
	 width="100%" viewBox="0 0 2048 2048" enable-background="new 0 0 2048 2048" xml:space="preserve">
<path fill="#F3F3F3" opacity="1.000000" stroke="none" 
	d="
M2049.000000,787.000000 
	C2049.000000,1208.000000 2049.000000,1628.500000 2049.000000,2049.000000 
	C1366.333374,2049.000000 683.666687,2049.000000 1.000000,2049.000000 
	C1.000000,1366.333374 1.000000,683.666687 1.000000,1.000000 
	C683.666687,1.000000 1366.333374,1.000000 2049.000000,1.000000 
	C2049.000000,262.833344 2049.000000,524.666687 2049.000000,787.000000 
M978.084351,90.047379 
	C977.418091,90.038689 976.751770,90.022392 976.085510,90.022392 
	C682.548157,90.021141 389.010834,90.020752 95.473511,90.027954 
	C93.977928,90.027992 92.482346,90.135605 90.491760,90.137154 
	C90.120972,90.323769 90.021393,90.606056 90.049957,91.913475 
	C90.040359,92.746300 90.022346,93.579132 90.022339,94.411957 
	C90.021027,388.109406 90.020691,681.806885 90.027435,975.504333 
	C90.027473,977.000366 90.127472,978.496399 90.158897,980.538208 
	C90.584686,980.418091 91.010475,980.297974 92.305016,980.352539 
	C92.638069,980.364563 92.971123,980.387146 93.304176,980.387146 
	C387.250397,980.390930 681.196594,980.393677 975.142822,980.383972 
	C976.746887,980.383911 978.350952,980.208984 980.395813,980.090088 
	C980.395813,977.706604 980.395752,975.742554 980.395752,973.778503 
	C980.395813,681.998535 980.397217,390.218628 980.372620,98.438683 
	C980.372437,95.955490 980.020630,93.472336 979.878723,90.483742 
	C979.590820,90.382767 979.302856,90.281792 978.084351,90.047379 
M1959.864502,90.491081 
	C1959.677124,90.118225 1959.394165,90.019440 1958.086304,90.048866 
	C1957.253418,90.039581 1956.420532,90.022156 1955.587646,90.022148 
	C1661.884033,90.020889 1368.180420,90.020576 1074.476807,90.027328 
	C1072.980835,90.027367 1071.484741,90.127357 1069.482056,90.119431 
	C1069.377075,90.408562 1069.271973,90.697693 1069.179443,91.811066 
	C1069.318359,94.122856 1069.578979,96.434639 1069.579224,98.746429 
	C1069.597412,390.044952 1069.596436,681.343506 1069.596436,972.642029 
	C1069.596436,975.074707 1069.596436,977.507324 1069.596436,980.403687 
	C1072.595093,980.403687 1074.894653,980.403687 1077.194214,980.403687 
	C1367.992798,980.403687 1658.791382,980.403687 1949.589966,980.403687 
	C1950.923096,980.403687 1952.256958,980.378723 1953.589355,980.408813 
	C1959.978271,980.552979 1959.979248,980.558167 1959.979248,973.869934 
	C1959.979370,681.571533 1959.979858,389.273102 1959.972412,96.974693 
	C1959.972290,94.978821 1959.863525,92.982956 1959.864502,90.491081 
M1959.980835,1465.500000 
	C1959.980835,1333.869629 1959.980835,1202.239136 1959.980835,1070.115723 
	C1663.094971,1070.115723 1366.589111,1070.115723 1069.622803,1070.115723 
	C1069.622803,1366.782227 1069.622803,1663.169922 1069.622803,1959.681396 
	C1366.107788,1959.681396 1662.844360,1959.681396 1959.980835,1959.681396 
	C1959.980835,1795.088257 1959.980835,1630.794189 1959.980835,1465.500000 
M967.488464,1959.981323 
	C971.457458,1959.981323 975.426392,1959.981323 979.890503,1959.981323 
	C979.890503,1663.103516 979.890503,1366.593018 979.890503,1070.249512 
	C683.147461,1070.249512 386.655579,1070.249512 90.018745,1070.249512 
	C90.018745,1072.885864 90.018745,1074.883057 90.018745,1076.880249 
	C90.018745,1368.876343 90.018738,1660.872559 90.018799,1952.868652 
	C90.018799,1959.980591 90.019173,1959.981323 97.002663,1959.981323 
	C386.832184,1959.981445 676.661682,1959.981323 967.488464,1959.981323 
z"/>
<path fill="#81BC06" opacity="1.000000" stroke="none" 
	d="
M1069.988770,90.180679 
	C1071.484741,90.127357 1072.980835,90.027367 1074.476807,90.027328 
	C1368.180420,90.020576 1661.884033,90.020889 1955.587646,90.022148 
	C1956.420532,90.022156 1957.253418,90.039581 1958.644287,90.288689 
	C1959.361328,90.736626 1959.562378,90.889481 1959.805542,90.987083 
	C1959.863525,92.982956 1959.972290,94.978821 1959.972412,96.974693 
	C1959.979858,389.273102 1959.979370,681.571533 1959.979248,973.869934 
	C1959.979248,980.558167 1959.978271,980.552979 1953.589355,980.408813 
	C1952.256958,980.378723 1950.923096,980.403687 1949.589966,980.403687 
	C1658.791382,980.403687 1367.992798,980.403687 1077.194214,980.403687 
	C1074.894653,980.403687 1072.595093,980.403687 1069.596436,980.403687 
	C1069.596436,977.507324 1069.596436,975.074707 1069.596436,972.642029 
	C1069.596436,681.343506 1069.597412,390.044952 1069.579224,98.746429 
	C1069.578979,96.434639 1069.318359,94.122856 1069.345215,91.303619 
	C1069.726440,90.634590 1069.885620,90.429420 1069.988770,90.180679 
z"/>
<path fill="#FFBA08" opacity="1.000000" stroke="none" 
	d="
M1959.980835,1466.000000 
	C1959.980835,1630.794189 1959.980835,1795.088257 1959.980835,1959.681396 
	C1662.844360,1959.681396 1366.107788,1959.681396 1069.622803,1959.681396 
	C1069.622803,1663.169922 1069.622803,1366.782227 1069.622803,1070.115723 
	C1366.589111,1070.115723 1663.094971,1070.115723 1959.980835,1070.115723 
	C1959.980835,1202.239136 1959.980835,1333.869629 1959.980835,1466.000000 
z"/>
<path fill="#05A6F0" opacity="1.000000" stroke="none" 
	d="
M966.989868,1959.981323 
	C676.661682,1959.981323 386.832184,1959.981445 97.002663,1959.981323 
	C90.019173,1959.981323 90.018799,1959.980591 90.018799,1952.868652 
	C90.018738,1660.872559 90.018745,1368.876343 90.018745,1076.880249 
	C90.018745,1074.883057 90.018745,1072.885864 90.018745,1070.249512 
	C386.655579,1070.249512 683.147461,1070.249512 979.890503,1070.249512 
	C979.890503,1366.593018 979.890503,1663.103516 979.890503,1959.981323 
	C975.426392,1959.981323 971.457458,1959.981323 966.989868,1959.981323 
z"/>
<path fill="#F35325" opacity="1.000000" stroke="none" 
	d="
M90.180794,979.992432 
	C90.127472,978.496399 90.027473,977.000366 90.027435,975.504333 
	C90.020691,681.806885 90.021027,388.109406 90.022339,94.411957 
	C90.022346,93.579132 90.040359,92.746300 90.288536,91.355087 
	C90.735275,90.637306 90.888496,90.436058 90.986763,90.192978 
	C92.482346,90.135605 93.977928,90.027992 95.473511,90.027954 
	C389.010834,90.020752 682.548157,90.021141 976.085510,90.022392 
	C976.751770,90.022392 977.418091,90.038689 978.647278,90.284569 
	C979.375977,90.733215 979.583557,90.889015 979.833008,90.989166 
	C980.020630,93.472336 980.372437,95.955490 980.372620,98.438683 
	C980.397217,390.218628 980.395813,681.998535 980.395752,973.778503 
	C980.395752,975.742554 980.395813,977.706604 980.395813,980.090088 
	C978.350952,980.208984 976.746887,980.383911 975.142822,980.383972 
	C681.196594,980.393677 387.250397,980.390930 93.304176,980.387146 
	C92.971123,980.387146 92.638069,980.364563 91.557922,980.208191 
	C90.600807,980.040039 90.390800,980.016235 90.180794,979.992432 
z"/>
<path fill="#F35A2D" opacity="1.000000" stroke="none" 
	d="
M90.739258,90.165070 
	C90.888496,90.436058 90.735275,90.637306 90.360077,90.890366 
	C90.021393,90.606056 90.120972,90.323769 90.739258,90.165070 
z"/>
<path fill="#F35A2D" opacity="1.000000" stroke="none" 
	d="
M979.855835,90.736450 
	C979.583557,90.889015 979.375977,90.733215 979.112549,90.351288 
	C979.302856,90.281792 979.590820,90.382767 979.855835,90.736450 
z"/>
<path fill="#86BF0F" opacity="1.000000" stroke="none" 
	d="
M1069.735352,90.150055 
	C1069.885620,90.429420 1069.726440,90.634590 1069.339111,90.891502 
	C1069.271973,90.697693 1069.377075,90.408562 1069.735352,90.150055 
z"/>
<path fill="#86BF0F" opacity="1.000000" stroke="none" 
	d="
M1959.834961,90.739082 
	C1959.562378,90.889481 1959.361328,90.736626 1959.108887,90.361618 
	C1959.394165,90.019440 1959.677124,90.118225 1959.834961,90.739082 
z"/>
<path fill="#F35A2D" opacity="1.000000" stroke="none" 
	d="
M90.169846,980.265320 
	C90.390800,980.016235 90.600807,980.040039 91.123550,980.120850 
	C91.010475,980.297974 90.584686,980.418091 90.169846,980.265320 
z"/>
</svg>