<svg version="1.1" id="Layer_1" xmlns="http://www.w3.org/2000/svg" xmlns:xlink="http://www.w3.org/1999/xlink" x="0px" y="0px"
	 width="100%" viewBox="0 0 640 640" enable-background="new 0 0 640 640" xml:space="preserve">
<path fill="#010101" opacity="1.000000" stroke="none" 
	d="
M641.000000,219.000000 
	C641.000000,359.999969 641.000000,500.499969 641.000000,641.000000 
	C427.666718,641.000000 214.333466,641.000000 1.000142,641.000000 
	C1.000095,427.666779 1.000095,214.333542 1.000047,1.000228 
	C214.333191,1.000152 427.666382,1.000152 640.999756,1.000076 
	C641.000000,73.500000 641.000000,146.000000 641.000000,219.000000 
M603.646606,199.854507 
	C603.491638,199.561279 603.315857,199.277054 603.184631,198.973572 
	C540.290588,53.484241 380.198669,-20.903913 229.708694,25.437225 
	C76.682068,72.559486 -14.441270,228.931381 19.802372,385.646240 
	C49.398483,521.091858 167.652298,620.963623 305.711182,626.779602 
	C371.102692,629.534302 432.020477,614.093750 486.687195,577.902954 
	C570.596924,522.352722 617.460632,443.844086 626.710449,343.605621 
	C631.268982,294.205933 622.953491,246.425812 603.646606,199.854507 
z"/>
<path fill="#FCFCFC" opacity="1.000000" stroke="none" 
	d="
M603.789490,200.209412 
	C622.953491,246.425812 631.268982,294.205933 626.710449,343.605621 
	C617.460632,443.844086 570.596924,522.352722 486.687195,577.902954 
	C432.020477,614.093750 371.102692,629.534302 305.711182,626.779602 
	C167.652298,620.963623 49.398483,521.091858 19.802372,385.646240 
	C-14.441270,228.931381 76.682068,72.559486 229.708694,25.437225 
	C380.198669,-20.903913 540.290588,53.484241 603.184631,198.973572 
	C603.315857,199.277054 603.491638,199.561279 603.789490,200.209412 
M381.200500,594.142273 
	C377.836304,594.129639 374.469879,594.040222 371.108887,594.138306 
	C369.544342,594.183838 367.953949,594.475098 366.461884,594.935547 
	C366.156586,595.029724 365.962708,596.947266 366.185516,597.054810 
	C367.732819,597.801819 369.562347,599.031677 371.004150,598.722229 
	C374.769043,597.913940 378.381653,596.396118 382.649872,595.085510 
	C383.289459,594.629944 383.929047,594.174316 385.145905,593.352600 
	C394.028564,584.450623 392.422119,577.440857 380.168213,571.632324 
	C385.414337,565.039368 385.269928,560.410095 379.731598,557.634583 
	C371.969727,553.744751 361.528442,559.886963 360.841705,568.227783 
	C363.169220,566.165405 365.464233,563.246704 368.466522,561.707153 
	C371.831879,559.981567 375.886810,560.206421 378.171753,563.976990 
	C380.465820,567.762573 378.712646,570.990051 375.615143,573.563843 
	C373.927856,574.965759 372.124878,576.228455 369.958435,577.868652 
	C384.795929,577.472107 389.246490,582.518250 383.263000,592.925415 
	C382.846558,593.297668 382.430115,593.669922 381.200500,594.142273 
M307.133789,587.107300 
	C307.293518,587.235718 307.453247,587.364197 307.346863,588.125977 
	C303.056213,596.445801 295.863892,600.440186 285.377655,601.514526 
	C301.476685,604.774475 316.477875,592.445801 316.182892,577.779785 
	C315.977356,567.561157 308.668610,561.000793 298.579254,561.978577 
	C291.233551,562.690491 285.521301,569.603455 286.195465,576.965393 
	C286.824921,583.838501 292.713928,588.485901 300.341125,587.938660 
	C302.475250,587.785522 304.572388,587.117249 307.133789,587.107300 
M440.458801,511.002075 
	C447.600494,506.138062 455.019928,501.632751 461.838898,496.351959 
	C507.699249,460.836884 533.694153,413.046997 544.637024,357.104401 
	C553.317749,312.725952 547.872620,269.094666 529.597717,227.643890 
	C486.633087,130.192291 387.985596,76.199074 282.895050,93.157608 
	C221.740723,103.026108 172.429321,133.790756 136.105316,183.870377 
	C96.945740,237.859360 84.357544,298.233032 97.159714,363.733093 
	C101.507484,385.977692 107.105957,408.055878 118.708405,427.688538 
	C143.648880,469.890717 177.687592,502.374908 223.074646,522.291260 
	C253.966751,535.847107 285.800323,545.892578 319.792999,545.702942 
	C362.842468,545.462891 402.427155,531.972717 440.458801,511.002075 
M506.690399,477.223846 
	C504.251831,482.426514 500.992249,487.414673 499.563934,492.881287 
	C497.328918,501.435486 502.130463,510.451843 509.934113,514.754456 
	C516.819824,518.550964 524.084290,517.073853 531.227234,510.398376 
	C532.320618,509.376556 533.399231,508.327362 534.383911,507.202637 
	C540.631470,500.066437 546.865417,492.918152 553.052002,485.729279 
	C553.563293,485.135254 553.690613,484.210785 554.565430,482.004333 
	C551.718872,483.775055 550.151917,484.749725 548.062500,486.049438 
	C541.531128,480.427032 534.717712,474.843170 528.264893,468.869781 
	C525.650757,466.449890 523.822937,463.180573 521.588318,460.233093 
	C517.188049,465.221710 512.149536,470.933990 506.690399,477.223846 
M71.416664,307.788910 
	C72.903259,306.725342 74.389862,305.661804 75.499527,304.867920 
	C75.499527,300.272430 75.499527,295.971680 75.499527,292.315063 
	C68.693161,298.024689 61.881157,303.739014 55.421986,309.157379 
	C53.034660,305.919312 51.560379,302.991180 49.270443,301.002075 
	C44.098072,296.509186 37.432899,298.939087 35.856041,305.616699 
	C35.476074,307.225739 35.186501,308.900421 35.180740,310.546082 
	C35.150440,319.198730 35.190144,327.852264 35.319679,336.503784 
	C35.331604,337.300232 36.147518,338.084656 36.374226,338.489349 
	C38.060040,336.372925 39.360256,333.250458 40.780907,333.194641 
	C51.388950,332.778015 62.020821,332.968201 72.365768,332.968201 
	C73.208160,335.302460 73.849373,337.079254 74.490585,338.856049 
	C74.802147,338.736023 75.113701,338.616028 75.425262,338.496002 
	C75.425262,331.356995 75.425262,324.217987 75.425262,317.078979 
	C75.007187,317.024414 74.589111,316.969879 74.171043,316.915314 
	C73.866783,318.037659 73.799377,319.314148 73.195679,320.241577 
	C72.508751,321.296875 71.356125,322.787445 70.383247,322.804657 
	C59.940289,322.989105 49.492840,322.919495 39.210186,322.919495 
	C37.481716,315.491425 39.194572,310.141937 43.615612,309.240997 
	C45.569157,308.842926 48.607506,308.918579 49.695812,310.110260 
	C52.135914,312.782196 53.663383,316.287598 55.563068,319.454620 
	C60.179996,316.031464 65.483345,312.099335 71.416664,307.788910 
M560.509277,422.721283 
	C562.167908,422.218292 563.826477,421.715332 565.044128,421.346100 
	C566.063538,424.886566 566.416626,428.155914 567.887329,430.804779 
	C571.169800,436.716736 579.162903,437.032654 581.949280,430.952271 
	C586.497009,421.028656 589.908264,410.584259 594.229431,399.228455 
	C592.277405,400.063141 591.183594,400.201874 591.045776,400.640869 
	C589.713989,404.880310 586.950195,404.006409 583.935242,402.888245 
	C577.404419,400.466156 570.793701,398.254364 564.301575,395.735107 
	C560.359070,394.205231 554.615112,393.865997 557.998352,386.190643 
	C557.266296,386.289124 556.534241,386.387604 555.802185,386.486084 
	C553.354553,393.154175 550.906921,399.822266 548.248840,407.063721 
	C551.537476,405.325439 554.104126,402.800140 555.716614,403.307495 
	C565.633850,406.427795 575.335571,410.233154 585.010437,413.774475 
	C583.296021,422.218231 580.253296,425.781616 575.458435,424.895844 
	C573.640564,424.560028 571.042114,423.477783 570.519165,422.088440 
	C569.241211,418.693268 568.966553,414.920410 568.293274,411.327759 
	C562.382812,413.065094 555.746704,415.057159 549.085266,416.960602 
	C543.848938,418.456848 539.764587,425.242462 540.628540,429.990295 
	C546.894714,427.673889 553.291382,425.309235 560.509277,422.721283 
M171.729950,123.198967 
	C181.701599,121.164696 189.434219,115.657928 195.019379,107.355232 
	C199.817413,100.222626 199.670273,92.665054 195.364334,85.227417 
	C191.534912,78.612831 185.805344,74.619347 178.147293,75.532898 
	C165.595367,77.030273 155.913727,83.771996 150.346588,95.028793 
	C143.349167,109.177635 157.078964,125.974182 171.729950,123.198967 
M471.721985,108.210197 
	C470.541077,109.610626 469.274536,110.948471 468.196533,112.424065 
	C465.710205,115.827316 463.117828,118.590210 458.695892,115.115387 
	C458.651306,115.080322 458.245697,115.504700 457.362762,116.286407 
	C463.003723,120.890297 468.532166,125.402344 474.060577,129.914398 
	C474.475342,129.557449 474.890137,129.200516 475.304901,128.843582 
	C474.226349,127.276062 473.147797,125.708542 471.703857,123.609978 
	C478.737854,114.996170 485.855347,106.280128 492.922852,97.625336 
	C500.102356,101.984268 502.540253,105.821739 500.525604,109.886864 
	C499.705627,111.541382 497.904694,113.759186 496.443573,113.842026 
	C492.651398,114.057030 488.800079,113.229591 484.895782,112.809959 
	C484.895782,115.067047 484.977264,118.061638 484.872925,121.049736 
	C484.768372,124.043724 484.482483,127.031540 484.268829,130.021530 
	C483.656799,138.586288 485.464966,141.374756 494.000580,145.257477 
	C494.000580,136.538849 494.000580,127.719948 494.000580,118.801849 
	C494.674591,118.875587 495.160583,118.886978 495.627930,118.986115 
	C502.975708,120.544701 507.601593,119.170609 509.637817,114.811401 
	C511.541992,110.735023 509.841736,106.644394 503.901398,101.762138 
	C497.858948,96.795921 491.692993,91.979614 485.558716,87.126007 
	C484.638550,86.397980 483.596069,85.824585 482.610168,85.179657 
	C482.278687,85.487587 481.947235,85.795517 481.615753,86.103455 
	C482.671997,87.717796 483.728271,89.332138 485.071594,91.385254 
	C480.818848,96.732269 476.482147,102.184845 471.721985,108.210197 
M572.308350,381.399750 
	C586.569946,387.176331 597.478455,381.997345 601.294800,367.087708 
	C602.592712,362.016907 603.039307,356.536713 602.777588,351.298462 
	C602.250122,340.741272 595.443237,333.337646 585.924316,331.893860 
	C574.465881,330.155914 566.611084,334.908447 562.734253,345.924927 
	C557.427979,361.003479 560.795593,374.302277 572.308350,381.399750 
M123.285774,519.434204 
	C129.124008,514.476807 134.916840,509.464569 140.817581,504.582703 
	C144.325912,501.680176 147.762878,497.550446 152.700119,502.553772 
	C152.747223,502.601501 153.227158,502.222137 154.182556,501.603302 
	C150.552444,497.330505 146.990906,493.138397 143.429367,488.946289 
	C142.986328,489.208466 142.543289,489.470642 142.100250,489.732819 
	C142.523514,490.716400 143.111465,491.665588 143.326004,492.692749 
	C143.563675,493.830719 143.987228,495.609833 143.424133,496.130829 
	C137.207352,501.882629 130.814224,507.443848 123.625755,513.802429 
	C124.851662,499.052887 126.115540,485.791412 126.925369,472.502289 
	C127.092255,469.763794 125.565849,466.922119 124.644890,463.472443 
	C119.875702,467.611298 116.252930,470.798950 112.581360,473.929413 
	C108.778923,477.171509 104.970016,480.408539 101.087875,483.553925 
	C97.690521,486.306519 94.498474,490.794434 89.517075,484.322205 
	C89.224571,485.005829 88.932068,485.689453 88.639557,486.373077 
	C92.089302,490.442963 95.539047,494.512817 98.988792,498.582672 
	C99.491440,495.501221 98.120667,492.088989 99.145889,491.057098 
	C104.571236,485.596100 110.599251,480.733765 116.418365,475.663910 
	C116.831223,475.893463 117.244072,476.123016 117.656929,476.352570 
	C116.610321,487.237366 115.716843,498.139801 114.463097,509.000702 
	C113.631958,516.200623 117.145576,523.332031 124.328079,527.133850 
	C123.772873,524.566772 123.286079,522.316040 123.285774,519.434204 
M406.382629,87.791878 
	C408.904388,78.844315 411.489136,69.913803 413.919952,60.941597 
	C415.046814,56.782421 415.957458,52.643581 422.116241,54.987873 
	C420.439423,51.477520 409.600281,48.283100 407.292358,49.561417 
	C408.536652,51.589886 411.133698,53.883995 410.803467,55.621861 
	C409.390411,63.058182 407.114166,70.330482 404.761017,79.126801 
	C398.636017,67.741516 393.014801,57.773956 387.902924,47.551682 
	C385.882324,43.511009 383.534058,40.836941 378.892578,40.249607 
	C376.047363,39.889580 373.281403,38.903160 370.479889,38.198032 
	C370.031281,38.620651 369.582672,39.043266 369.134094,39.465881 
	C377.432190,41.847298 374.793121,46.819435 373.297516,51.619244 
	C371.865875,56.213837 370.791107,60.923557 369.260468,65.482300 
	C367.675446,70.203094 368.062195,76.912712 359.099274,75.072311 
	C359.289764,75.667702 359.480225,76.263084 359.670715,76.858467 
	C364.969482,78.313217 370.268250,79.767960 376.111755,81.372261 
	C374.116791,78.414238 371.341888,76.138611 371.669769,74.474297 
	C373.267426,66.364876 375.694489,58.418861 377.856049,50.310051 
	C378.424438,50.611053 378.604797,50.643776 378.661438,50.745445 
	C385.126831,62.343307 391.467926,74.013283 398.144958,85.487778 
	C399.358063,87.572479 401.897888,88.922050 403.970612,90.408257 
	C404.161743,90.545288 405.412506,89.204475 406.382629,87.791878 
M181.778137,549.299011 
	C183.861755,546.289917 185.998047,543.315735 188.017532,540.264221 
	C191.666382,534.750549 192.061996,530.466248 187.560638,525.755310 
	C183.286850,521.282593 178.195404,517.217590 172.743011,514.337097 
	C165.590698,510.558502 159.773941,512.531372 154.772491,518.977966 
	C151.612564,523.051025 148.734787,527.341675 145.630859,531.459717 
	C143.266846,534.596008 141.313385,538.750793 136.054764,536.266968 
	C135.995987,536.239197 135.560867,537.008240 135.125244,537.674927 
	C139.525375,540.613953 143.864151,543.511963 148.308701,546.480652 
	C147.643082,543.086731 145.914139,539.859741 146.879654,538.201111 
	C150.545425,531.903442 154.975128,526.033203 159.336060,520.164246 
	C161.820282,516.820984 165.512207,515.903564 169.139343,517.777954 
	C172.613434,519.573364 176.004623,521.834473 178.809753,524.536987 
	C181.879562,527.494507 182.024414,531.351318 179.532104,535.007202 
	C176.440598,539.541931 173.307617,544.048889 170.151642,548.539124 
	C167.719940,551.998779 165.569901,556.195923 160.136475,552.941833 
	C160.067764,552.900696 159.551498,553.606873 159.023941,554.220215 
	C164.977005,558.409668 170.813110,562.516724 177.197357,567.009583 
	C177.340759,565.580505 177.700180,564.428650 177.436768,564.262207 
	C172.856812,561.367554 175.286179,558.523682 177.368484,555.621033 
	C178.725983,553.728760 180.009903,551.783691 181.778137,549.299011 
M321.941772,68.030380 
	C320.765320,70.276123 319.588867,72.521858 318.395752,74.799408 
	C329.688171,75.416649 341.084015,76.039551 352.625336,76.670403 
	C353.090210,72.996002 353.474854,69.955902 353.950226,66.198441 
	C349.542969,67.463501 350.498199,74.575249 344.593964,73.022392 
	C340.704041,71.999298 336.433258,72.424370 331.848541,72.174599 
	C332.210052,66.560272 332.535706,61.502514 332.879364,56.165504 
	C336.496582,56.440014 339.700653,56.067451 342.385254,57.076683 
	C344.637390,57.923351 346.283691,60.381695 348.651276,62.539349 
	C348.651276,57.683941 348.651276,53.485832 348.651276,49.287720 
	C344.597961,57.323257 338.335266,52.218365 332.767639,53.171684 
	C333.216980,48.083866 333.605072,43.689812 334.048096,38.673611 
	C339.523682,39.095589 344.560486,39.483753 349.438995,39.859715 
	C349.898621,42.057331 350.211761,43.554726 350.524933,45.052124 
	C351.049377,45.135151 351.573853,45.218178 352.098297,45.301201 
	C352.805786,42.428707 353.513306,39.556213 354.516754,35.482212 
	C341.872833,35.482212 329.967377,35.482212 317.242310,35.482212 
	C323.522949,38.366169 323.589233,38.369324 323.263611,45.213737 
	C322.915558,52.527996 322.425385,59.835487 321.941772,68.030380 
M60.355133,379.824005 
	C63.458214,379.253235 66.542313,378.382446 69.668991,378.184509 
	C73.977753,377.911774 78.717239,375.080688 82.765587,379.708069 
	C80.772026,368.389099 78.778473,357.070160 76.757187,345.593750 
	C73.062454,345.940979 70.043007,346.224762 67.023560,346.508545 
	C66.488022,346.992218 65.952477,347.475891 65.416939,347.959564 
	C79.023979,349.281891 74.269249,359.580566 77.343117,366.674805 
	C71.623482,367.656281 66.645111,368.510529 61.385731,369.413025 
	C60.616470,363.428223 56.670959,357.689758 64.665138,353.632935 
	C64.294075,353.319763 63.923016,353.006592 63.551956,352.693420 
	C59.338982,353.426300 55.126007,354.159180 50.913033,354.892029 
	C50.745708,355.406311 50.578384,355.920563 50.411064,356.434814 
	C59.804031,357.484650 56.029377,364.903992 58.518108,370.086273 
	C53.310471,370.863464 48.824448,371.532959 43.892403,372.269043 
	C43.073357,366.753632 42.349152,361.876923 41.674507,357.333923 
	C43.616009,356.032654 45.024559,355.088593 46.433105,354.144531 
	C46.264851,353.832581 46.096600,353.520599 45.928345,353.208618 
	C43.059696,353.208618 40.191048,353.208618 36.588253,353.208618 
	C38.902977,365.380829 41.125591,377.068634 43.348202,388.756439 
	C43.875881,389.029602 44.403561,389.302765 44.931240,389.575897 
	C44.172337,380.019104 51.278019,381.939819 56.066967,380.518524 
	C57.172306,380.190491 58.356075,380.126709 60.355133,379.824005 
M53.989212,249.271500 
	C51.359211,248.427200 48.729210,247.582886 45.920094,246.681076 
	C41.823738,254.349564 39.323780,261.941650 40.827175,270.370972 
	C41.857899,276.150116 45.650093,279.774017 51.008423,280.384979 
	C56.061626,280.961121 59.368782,278.725708 62.012539,272.922668 
	C63.729919,269.153046 65.074234,265.147003 67.292290,261.701782 
	C68.304970,260.128815 71.119682,258.742188 72.941200,258.934784 
	C74.801559,259.131439 77.628708,261.139496 77.940483,262.757660 
	C78.598801,266.174438 78.647163,270.107544 77.554848,273.362030 
	C76.182541,277.450714 74.193199,282.075409 67.996567,280.488892 
	C67.477470,280.356018 66.567780,281.748810 65.374687,282.869385 
	C69.509911,284.118530 72.615692,285.056702 75.904884,286.050293 
	C81.383987,276.641479 84.728943,267.121216 80.566948,256.539856 
	C78.642868,251.648148 74.767281,248.982529 69.333031,248.940887 
	C64.121391,248.900940 61.732162,252.391083 59.940880,256.532806 
	C58.297729,260.332031 57.030823,264.314362 55.144146,267.982513 
	C53.052048,272.050018 48.959522,272.814545 46.161118,269.862518 
	C42.820286,266.338287 43.527443,262.143311 45.053322,258.169067 
	C46.262665,255.019241 47.295971,251.322540 52.148487,251.981003 
	C52.802441,252.069733 53.664505,250.624817 53.989212,249.271500 
M471.195312,526.860901 
	C466.121826,531.849792 463.113495,526.450256 459.171631,524.919312 
	C460.445160,522.949890 461.458282,521.383179 462.471405,519.816467 
	C462.091919,519.502808 461.712463,519.189209 461.332977,518.875610 
	C455.705688,523.228394 450.078430,527.581116 444.922882,531.568970 
	C449.385773,532.853943 453.423859,533.505859 457.008331,535.148010 
	C466.362305,539.433228 475.483002,544.225342 484.790222,548.617188 
	C486.151825,549.259705 488.672729,549.500671 489.500275,548.712524 
	C490.597687,547.667358 490.668732,545.445435 490.953094,543.692200 
	C491.076202,542.933472 490.549683,542.091797 490.455231,541.271912 
	C488.925934,527.998901 482.577087,515.290283 485.179047,501.084137 
	C481.185699,504.077209 476.985687,507.225189 472.785675,510.373169 
	C472.984070,510.826904 473.182434,511.280640 473.380829,511.734375 
	C475.247101,511.155457 477.113403,510.576569 478.949249,510.007111 
	C482.706604,518.162781 482.706818,518.163086 476.165222,523.102295 
	C474.704407,524.205261 473.241577,525.305420 471.195312,526.860901 
M524.524841,164.866592 
	C523.229187,167.883835 521.933472,170.901093 520.561035,174.097168 
	C518.341919,172.505234 516.955627,171.510757 515.569336,170.516281 
	C515.198364,170.908676 514.827393,171.301056 514.456421,171.693451 
	C518.761169,177.348557 523.065918,183.003677 527.370605,188.658783 
	C527.833740,188.516678 528.296875,188.374588 528.759949,188.232483 
	C525.434387,181.170792 530.697388,176.488663 533.055359,171.110321 
	C536.513672,163.222427 540.665527,155.640747 544.261475,147.809006 
	C544.856995,146.511902 544.634033,144.261383 543.842834,143.091537 
	C543.231750,142.187958 541.153687,142.126419 539.700439,141.996033 
	C538.757019,141.911377 537.774719,142.475128 536.791992,142.579376 
	C523.522949,143.987076 510.879669,150.722137 496.081604,147.265961 
	C499.626648,151.906357 502.812439,156.076477 505.998199,160.246597 
	C506.456116,159.956268 506.914032,159.665955 507.371918,159.375641 
	C506.706726,157.692047 506.041504,156.008469 505.387360,154.352859 
	C512.584290,150.240845 513.729309,150.452957 518.378662,156.632660 
	C520.275024,159.153290 522.168701,161.675949 524.524841,164.866592 
M589.827209,244.099243 
	C581.757263,246.062637 573.651245,247.891586 565.631714,250.042831 
	C561.234314,251.222412 557.338928,251.989166 555.626892,246.322113 
	C555.608704,246.261841 555.030212,246.370865 553.938416,246.474182 
	C555.694763,253.976944 557.422302,261.356750 559.149902,268.736572 
	C559.689392,268.658081 560.228882,268.579590 560.768372,268.501099 
	C560.768372,267.274139 560.489624,265.959656 560.840271,264.842804 
	C561.260132,263.505829 561.960083,261.577057 562.987061,261.229492 
	C567.186768,259.808258 571.557373,258.892059 575.807312,257.804688 
	C579.260010,267.111237 579.044861,268.622620 574.086182,271.521332 
	C575.719360,274.011932 581.065063,273.517548 588.030273,269.659790 
	C579.705322,268.552551 580.577454,262.560120 579.536255,256.899841 
	C584.292236,255.955734 588.745972,255.071625 593.713379,254.085541 
	C594.704651,259.367157 595.578308,264.022034 596.303162,267.884064 
	C594.184448,269.656403 592.888916,270.740143 591.593323,271.823883 
	C591.887024,272.249847 592.180725,272.675812 592.474426,273.101776 
	C595.323547,272.689453 598.172668,272.277130 601.283630,271.826935 
	C598.767456,260.663330 596.387268,249.968658 593.880920,239.303650 
	C593.723511,238.634186 592.580017,238.196472 591.745605,237.531662 
	C591.297974,240.123291 590.978821,241.970932 589.827209,244.099243 
M283.964386,77.931381 
	C292.047943,78.476486 299.968109,77.866211 307.240509,73.933769 
	C308.853729,73.061462 310.018707,71.360229 311.390076,70.040665 
	C311.107605,69.688408 310.825165,69.336151 310.542725,68.983887 
	C308.007812,70.018112 305.535828,71.269730 302.920593,72.026314 
	C300.224365,72.806335 297.407837,73.343430 294.610352,73.567688 
	C286.767578,74.196419 279.341827,70.260498 276.526489,63.639008 
	C273.796936,57.219269 273.239594,50.664341 278.115570,44.826954 
	C282.429321,39.662621 292.648010,37.097412 299.279114,39.764118 
	C301.082214,40.489243 302.274353,42.734417 303.745789,44.283031 
	C304.326538,44.894245 304.904266,45.508347 305.483398,46.121124 
	C305.940369,45.412884 306.746155,44.726151 306.791382,43.992519 
	C306.952301,41.382881 306.854248,38.757271 306.854248,36.247314 
	C296.207367,34.205360 286.150269,34.922707 276.643707,39.255074 
	C264.230957,44.911888 260.377777,57.990490 267.628143,68.709457 
	C271.336945,74.192566 276.838501,76.643478 283.964386,77.931381 
M48.018711,399.347900 
	C47.503590,399.675079 46.498680,400.177551 46.543995,400.304230 
	C48.303738,405.222229 50.159355,410.105896 52.002354,414.994110 
	C52.493946,414.856018 52.985535,414.717957 53.477123,414.579895 
	C53.371849,412.527527 53.266571,410.475159 53.126812,407.750519 
	C63.029194,408.447510 72.465889,409.111725 81.902580,409.775909 
	C82.155327,410.359009 82.408073,410.942139 82.660820,411.525238 
	C75.443825,417.818115 68.226837,424.110992 61.057632,430.362183 
	C60.384418,429.551086 59.200024,428.124084 58.015633,426.697083 
	C57.573624,427.007141 57.131611,427.317200 56.689602,427.627258 
	C59.445805,434.495758 62.202011,441.364258 64.958214,448.232727 
	C65.672600,448.128662 66.386993,448.024567 67.101379,447.920502 
	C64.394409,443.133575 67.537773,440.500732 70.064178,437.734070 
	C77.141647,429.983612 84.370125,422.369202 91.345200,414.528687 
	C92.547310,413.177460 93.836197,410.421936 93.237389,409.310455 
	C92.416664,407.786957 89.903297,406.555267 87.988464,406.343048 
	C76.572937,405.077698 65.106926,404.264465 53.695789,402.966156 
	C51.939083,402.766296 50.378323,400.844177 48.018711,399.347900 
M211.261383,82.251251 
	C211.784225,83.470383 212.460403,84.648224 212.801849,85.916199 
	C213.930466,90.107338 218.674332,94.734802 211.534637,98.108696 
	C211.485535,98.131912 211.822601,98.972343 212.110748,99.815834 
	C219.158447,96.944305 226.112625,94.110886 233.066803,91.277458 
	C232.921417,90.776566 232.776031,90.275673 232.630630,89.774780 
	C230.512848,90.117676 228.395065,90.460564 225.885361,90.866913 
	C223.742599,85.947136 221.663727,81.174057 219.381897,75.934998 
	C223.463181,74.527740 226.959442,73.322220 230.230667,72.194283 
	C231.030258,73.108276 231.302322,73.553772 231.692062,73.837776 
	C232.603210,74.501709 233.570816,75.088120 234.515579,75.705933 
	C234.545654,74.523720 234.875748,73.248688 234.544571,72.178246 
	C233.812134,69.810867 232.819901,67.512367 231.768478,65.262978 
	C231.493332,64.674324 230.612808,64.368652 230.010284,63.933010 
	C229.584854,64.641739 229.169647,65.356865 228.731781,66.057831 
	C227.903717,67.383347 227.362045,69.217667 226.163483,69.911888 
	C223.804840,71.278023 221.078400,72.009163 218.324387,73.072380 
	C217.332108,70.579575 216.436203,68.449661 215.636047,66.284370 
	C214.851395,64.161049 214.164154,62.001717 213.466827,59.954071 
	C224.387100,54.025078 226.011154,53.924774 231.056183,59.317356 
	C232.501678,55.345287 230.306351,52.554878 229.469238,49.079529 
	C218.389160,53.597549 207.630936,57.984325 195.592651,62.893059 
	C197.665100,63.620815 198.531586,64.253250 198.986603,64.033531 
	C203.026108,62.082981 204.170853,64.689903 205.338837,67.722397 
	C207.125809,72.361969 209.109833,76.925659 211.261383,82.251251 
M71.667305,188.191360 
	C79.351814,192.403412 86.979431,196.724319 94.744400,200.782410 
	C98.733864,202.867386 102.116013,204.868088 99.028282,210.083481 
	C98.945862,210.222717 99.546898,210.766602 100.386810,211.823303 
	C104.344795,204.881912 108.061028,198.364502 112.238266,191.038605 
	C108.559547,192.570892 105.563507,194.952957 104.131294,194.231308 
	C94.834633,189.547104 85.878181,184.187698 76.679100,178.975052 
	C79.125854,175.024750 81.216507,171.649368 83.051498,168.686768 
	C85.727837,168.890396 87.818245,169.049454 89.908653,169.208496 
	C89.969124,168.658844 90.029594,168.109192 90.090065,167.559540 
	C87.514442,165.917496 84.938812,164.275452 82.204903,162.532501 
	C74.807030,175.341278 67.587952,187.840469 60.369270,200.338974 
	C68.305008,205.062836 68.305008,205.062836 69.815414,202.240891 
	C68.480278,201.055359 67.145142,199.869812 65.731590,198.614655 
	C67.644661,195.114578 69.394958,191.912308 71.667305,188.191360 
M446.239563,91.792534 
	C449.518127,85.729012 452.796661,79.665497 456.169464,73.427643 
	C460.180054,75.723877 463.600616,77.682289 467.111145,79.692200 
	C466.757721,80.828979 466.377319,81.586525 466.312683,82.370110 
	C466.216553,83.535973 466.343597,84.720238 466.375702,85.896660 
	C467.435242,85.152489 468.734100,84.596169 469.499512,83.621094 
	C470.713318,82.074860 471.570465,80.248650 472.706238,78.324486 
	C459.878265,71.497948 447.060577,64.676895 433.977966,57.714848 
	C432.536469,60.732491 431.211121,63.506950 429.169952,67.779869 
	C433.011414,66.152863 435.664795,63.975731 437.933563,64.321587 
	C441.124329,64.808006 444.029694,67.166656 447.216339,68.806595 
	C443.241882,76.360405 439.647980,83.450615 435.802429,90.401588 
	C433.526276,94.515839 432.576355,101.144951 424.310272,95.982361 
	C424.370544,96.741295 424.430817,97.500237 424.491089,98.259178 
	C431.087830,101.833511 437.684540,105.407852 444.689331,109.203293 
	C444.836884,107.862450 445.061371,107.056602 444.914185,106.981773 
	C439.031860,103.991196 441.733551,100.201004 443.867645,96.438301 
	C444.603577,95.140770 445.257538,93.796745 446.239563,91.792534 
M113.568710,146.042953 
	C109.088760,145.695969 104.612457,145.128387 100.127998,145.054260 
	C93.581566,144.946014 88.666206,150.465347 88.860237,157.315048 
	C101.445267,150.820724 120.277878,154.351624 127.636414,164.518463 
	C126.870850,166.165894 126.129150,167.761948 125.387451,169.358002 
	C125.898895,169.662567 126.410332,169.967133 126.921768,170.271683 
	C131.459274,164.444351 135.996780,158.617020 140.534271,152.789688 
	C139.011169,152.013229 138.158096,152.012756 137.928589,152.390808 
	C135.645432,156.151855 133.331161,154.655624 130.530975,152.882111 
	C124.788612,149.245132 120.673531,144.799469 119.671967,137.674988 
	C118.981606,132.764191 117.383820,127.978127 116.133949,123.151237 
	C115.881859,122.177719 115.370590,121.271309 114.968872,120.310173 
	C111.416275,122.777107 111.447365,125.401512 112.755630,128.818085 
	C114.879250,134.363998 116.399849,140.140808 118.269386,146.122070 
	C116.675079,146.122070 115.571976,146.122070 113.568710,146.042953 
M564.844055,317.630341 
	C565.544739,322.421173 566.664673,322.851044 575.848877,321.660126 
	C574.993164,317.319244 567.460815,319.830139 568.110291,313.834167 
	C568.547607,309.797577 567.615112,305.612640 567.259033,301.025818 
	C578.675293,300.221710 589.728943,299.443146 600.718140,298.669098 
	C601.441528,300.924927 601.967773,302.565857 602.494019,304.206818 
	C603.079163,304.121582 603.664246,304.036346 604.249329,303.951111 
	C603.777344,296.731873 603.305420,289.512665 602.752502,281.055267 
	C601.411438,282.622559 600.647888,283.116089 600.690430,283.526001 
	C601.175476,288.201538 598.444824,288.910187 594.611267,289.080139 
	C587.302979,289.404114 580.018188,290.339630 572.710205,290.546478 
	C569.546265,290.636017 566.348999,289.547974 562.833862,288.936951 
	C563.417786,297.350189 564.090637,307.044098 564.844055,317.630341 
M547.679504,219.081955 
	C545.144470,214.657852 542.609497,210.233734 539.854004,205.424881 
	C550.284180,200.119644 560.139893,195.106644 569.655029,190.266846 
	C571.642883,192.005386 573.021179,193.210846 574.399536,194.416321 
	C574.733826,194.101532 575.068115,193.786758 575.402466,193.471970 
	C572.089661,187.087814 568.776917,180.703659 564.835815,173.108627 
	C564.245911,175.188293 563.782715,175.919464 563.982727,176.253250 
	C566.513672,180.477203 563.783875,182.084839 560.546936,183.683319 
	C553.704956,187.062134 547.024109,190.785202 540.077209,193.924545 
	C537.502747,195.087967 534.367554,195.010437 531.084961,195.567215 
	C535.805908,204.863495 540.975281,215.042877 546.152405,225.237457 
	C549.929626,223.851044 552.950378,222.742279 555.971130,221.633514 
	C555.936523,221.053360 555.901978,220.473206 555.867432,219.893051 
	C553.302551,219.820511 550.737732,219.747971 547.679504,219.081955 
M102.902351,445.102844 
	C96.103348,449.232788 89.284790,453.331024 82.513771,457.506378 
	C79.244064,459.522583 76.056061,462.116821 73.189499,456.973785 
	C73.064301,456.749176 72.014755,457.039764 70.738884,457.144073 
	C74.771606,463.760773 78.545532,469.952881 82.319450,476.144958 
	C82.782814,475.971588 83.246178,475.798248 83.709541,475.624878 
	C83.272125,473.826691 82.834702,472.028534 82.212845,469.472137 
	C91.762062,463.697845 101.472153,457.826294 110.902924,452.123627 
	C112.995308,453.870026 114.449226,455.083557 115.903145,456.297058 
	C116.205612,455.935760 116.508072,455.574463 116.810532,455.213135 
	C113.067444,449.042328 109.324356,442.871521 105.392624,436.389709 
	C104.660507,439.799652 104.130470,442.268372 102.902351,445.102844 
M526.486267,453.158722 
	C530.565369,448.568909 534.464539,450.785889 538.542908,453.298584 
	C543.623413,456.428741 548.828735,459.361237 554.037598,462.276398 
	C557.790100,464.376434 561.900208,466.168243 558.972473,471.733765 
	C558.947571,471.781128 559.731445,472.253937 560.133301,472.525116 
	C565.500427,465.983154 570.763062,455.091705 569.449219,452.930511 
	C568.276001,454.321167 567.139160,455.668732 565.648621,457.435486 
	C555.609192,451.647919 545.769592,445.975525 536.328064,440.532623 
	C536.891541,437.789459 537.257935,436.006012 537.624329,434.222565 
	C537.128235,434.057098 536.632202,433.891632 536.136169,433.726166 
	C532.701111,440.043732 529.266113,446.361267 526.486267,453.158722 
M67.947433,221.633041 
	C66.719734,221.136124 65.514160,220.572830 64.260185,220.154709 
	C60.518421,218.907059 56.129787,218.191193 58.522259,212.378296 
	C58.585773,212.223999 57.638371,211.653641 56.716763,210.924973 
	C54.148540,218.092773 51.720901,224.868210 49.260372,231.735443 
	C50.229671,231.926544 50.557606,232.060715 50.870964,232.032562 
	C51.158638,232.006729 51.633644,231.857315 51.679844,231.674728 
	C52.907757,226.821716 56.066818,227.874191 59.350906,229.085068 
	C66.340706,231.662292 73.294182,234.355881 80.368408,236.679504 
	C84.531319,238.046860 87.893860,239.454117 84.966904,245.003357 
	C88.714378,243.702484 94.675697,227.331711 92.709763,224.060486 
	C91.254028,230.228561 87.625984,228.814178 83.652534,227.226959 
	C78.737030,225.263382 73.677864,223.659454 67.947433,221.633041 
M340.793488,576.443054 
	C338.174622,577.104004 335.555756,577.765015 332.469025,578.544067 
	C335.424225,568.979919 341.590179,563.667480 351.834412,561.379822 
	C337.548431,560.008484 323.518250,572.899963 324.066315,585.661499 
	C324.368591,592.700378 327.485016,598.069336 334.026093,601.121643 
	C339.694305,603.766602 345.086243,603.048096 349.880890,599.161377 
	C354.323029,595.560486 355.875671,589.599182 354.100647,584.286560 
	C352.089966,578.268494 347.310638,576.562744 340.793488,576.443054 
M230.829437,553.976318 
	C230.496857,552.480530 230.164261,550.984741 229.720673,548.989807 
	C223.164902,555.942993 215.587952,558.769714 205.665085,558.003174 
	C213.819397,564.046875 216.949051,571.084839 215.759415,580.829102 
	C223.257339,573.943420 230.980804,570.456238 238.921219,572.505432 
	C236.455246,567.074158 233.662491,560.923157 230.829437,553.976318 
M409.357269,565.693176 
	C407.818115,567.393127 406.278961,569.093079 404.332611,571.242737 
	C413.584167,571.521301 421.149841,574.902954 426.205170,581.300476 
	C428.062714,573.972168 429.933044,566.593445 431.768707,559.351501 
	C429.365051,558.505188 425.807343,557.632446 422.620758,556.024292 
	C419.403381,554.400696 416.554077,552.047668 414.012726,550.331116 
	C412.499847,555.622986 411.149384,560.346802 409.357269,565.693176 
M256.018524,593.642578 
	C254.568481,593.794373 253.118423,593.946106 251.668365,594.097900 
	C251.654449,594.269226 251.640533,594.440552 251.626633,594.611877 
	C255.891296,595.514099 260.155975,596.416321 263.501495,597.124084 
	C264.510040,591.404419 265.362366,586.009155 266.428925,580.656616 
	C267.934845,573.099121 269.599182,565.573181 271.323425,557.430908 
	C266.976471,558.328308 263.529907,559.039856 260.083313,559.751343 
	C264.415741,560.364746 264.209747,562.720093 263.428009,565.773926 
	C261.092865,574.895569 258.924072,584.059814 256.018524,593.642578 
z"/>
<path fill="#030201" opacity="1.000000" stroke="none" 
	d="
M440.131104,511.167175 
	C402.427155,531.972717 362.842468,545.462891 319.792999,545.702942 
	C285.800323,545.892578 253.966751,535.847107 223.074646,522.291260 
	C177.687592,502.374908 143.648880,469.890717 118.708405,427.688538 
	C107.105957,408.055878 101.507484,385.977692 97.159714,363.733093 
	C84.357544,298.233032 96.945740,237.859360 136.105316,183.870377 
	C172.429321,133.790756 221.740723,103.026108 282.895050,93.157608 
	C387.985596,76.199074 486.633087,130.192291 529.597717,227.643890 
	C547.872620,269.094666 553.317749,312.725952 544.637024,357.104401 
	C533.694153,413.046997 507.699249,460.836884 461.838898,496.351959 
	C455.019928,501.632751 447.600494,506.138062 440.131104,511.167175 
M223.843826,118.548317 
	C201.742783,130.308212 182.302170,145.502884 164.947845,163.526459 
	C129.974304,199.848709 118.941788,243.000031 127.868881,291.933655 
	C132.629974,318.031525 144.610733,340.304688 162.790619,359.636200 
	C176.246216,373.944122 190.302780,387.637665 207.947693,396.252380 
	C224.455185,404.311829 241.859863,410.639557 259.150696,416.960724 
	C278.997498,424.216278 299.069275,430.760773 316.732300,442.871887 
	C323.535217,447.536469 329.209015,453.202789 331.919403,460.905792 
	C336.709595,474.519562 338.330658,488.540588 335.148560,503.294708 
	C337.822601,501.083801 340.381195,498.664154 342.041809,495.735382 
	C355.590576,471.839081 357.961243,441.514862 332.258057,419.037872 
	C320.055511,408.366943 306.492249,399.025787 292.690430,390.459808 
	C268.487000,375.438141 244.577850,360.141388 223.405655,340.932678 
	C192.445007,312.843323 175.057785,277.548370 172.530182,236.267334 
	C169.794327,191.585541 187.037872,154.129257 220.443359,124.228035 
	C222.158401,122.692909 223.685272,120.947517 225.846664,118.984222 
	C225.399765,118.750824 224.952881,118.517433 223.843826,118.548317 
M437.039490,248.450058 
	C435.797150,235.410904 434.554810,222.371750 433.312500,209.332596 
	C432.860504,209.180389 432.408508,209.028183 431.956543,208.875992 
	C427.549225,215.786743 423.141907,222.697479 418.549347,229.898743 
	C417.383881,229.319748 415.791962,228.487183 414.166107,227.727386 
	C388.345856,215.661026 362.384918,215.043549 336.617279,227.546158 
	C310.288422,240.321060 292.775055,262.076996 277.727020,286.412506 
	C279.433990,288.404724 280.869965,290.242310 282.470032,291.923737 
	C303.833496,314.373047 325.781219,336.297729 346.446472,359.371399 
	C368.148071,383.602234 383.703705,410.863342 381.014465,445.235565 
	C379.895020,459.543762 376.633881,473.139252 369.094696,485.510712 
	C366.456543,489.839844 363.837830,494.180878 361.210205,498.516449 
	C361.495636,498.834900 361.781097,499.153320 362.066528,499.471741 
	C367.738190,494.804230 373.762848,490.500397 379.016022,485.401672 
	C395.495575,469.406708 408.820465,450.836792 420.777557,431.374146 
	C436.348877,406.028687 446.785278,378.272339 457.083740,350.502808 
	C457.536133,349.282837 458.029938,348.078247 458.835175,346.022064 
	C458.835175,369.422119 458.847656,391.746277 458.806885,414.070312 
	C458.804169,415.551727 458.443481,417.041290 458.168823,418.511993 
	C456.498779,427.453796 453.116364,429.326782 444.664032,426.052307 
	C444.432892,425.962738 444.063202,426.230865 443.636597,426.372559 
	C439.194214,437.304810 434.723755,448.306183 430.091125,459.706635 
	C443.917419,460.490692 456.095398,458.106842 466.034790,448.949127 
	C468.004791,447.134094 469.349060,444.027679 469.819092,441.315277 
	C471.068207,434.106812 471.567047,426.772461 472.569061,419.516418 
	C476.645203,389.999420 480.817535,360.495697 484.867004,330.975067 
	C485.075104,329.458099 485.045776,327.303986 484.157562,326.336700 
	C477.002869,318.545288 469.615417,310.967651 462.090881,303.107147 
	C460.688812,305.018524 459.725891,306.349548 458.744293,307.666656 
	C446.620148,323.934631 431.992004,337.077667 413.565094,346.133331 
	C398.793762,353.392517 380.518280,345.260651 374.799133,331.232452 
	C370.879486,321.618195 369.285034,311.653259 370.712921,301.415497 
	C371.343079,296.897552 372.580322,292.189880 374.738892,288.218994 
	C378.734955,280.867889 385.292206,279.494965 391.893402,284.582855 
	C395.631958,287.464355 399.347778,291.108948 401.440338,295.237732 
	C405.622070,303.488586 408.961853,312.209106 412.061920,320.944122 
	C413.298981,324.429871 414.599487,325.849701 418.302368,325.110321 
	C428.574432,323.059326 435.752563,316.534332 442.129120,308.864624 
	C442.729828,308.142059 442.637177,306.659515 442.532776,305.561554 
	C440.751221,286.826111 438.916931,268.095673 437.039490,248.450058 
M342.742249,95.745544 
	C323.034210,93.687988 303.628723,95.640511 284.124146,98.884514 
	C244.260742,105.514587 197.007355,144.172363 187.386948,188.477737 
	C183.014709,208.613541 179.421448,228.872360 181.826248,249.344498 
	C184.914093,275.631317 196.906143,298.465790 213.430450,318.840118 
	C226.190308,334.572906 241.175934,347.921844 258.371399,358.791138 
	C271.302765,366.965210 284.176941,375.261627 296.702423,384.037567 
	C311.528809,394.425507 326.973114,404.261230 340.322052,416.353729 
	C362.439148,436.389160 366.198853,464.481476 352.490906,491.053833 
	C350.477631,494.956451 348.363678,498.807068 345.716492,503.768463 
	C347.581970,502.602081 348.658783,502.218353 349.326019,501.469604 
	C372.003601,476.022705 381.381439,447.466217 369.583099,414.031525 
	C360.973022,389.631775 345.784088,369.540558 327.861237,351.396027 
	C311.240601,334.569824 294.206329,318.152313 277.363159,301.545746 
	C266.620697,290.954193 256.603027,279.766113 251.915848,265.043335 
	C237.437805,219.566910 244.126389,177.850494 275.490479,141.245712 
	C299.801300,112.872749 330.736877,100.632133 368.135376,105.789627 
	C374.008942,106.599625 379.937347,107.012138 385.840393,107.608444 
	C385.914825,107.202148 385.989227,106.795860 386.063629,106.389565 
	C372.576294,100.421837 358.307281,97.388016 342.742249,95.745544 
M231.518158,417.035889 
	C204.818542,406.819183 180.300232,393.465607 160.855911,371.668182 
	C145.665268,354.639252 131.632553,337.223083 125.196381,314.771179 
	C118.484222,291.356537 114.369652,267.748138 118.037323,243.325256 
	C118.698944,238.919586 119.368774,234.515137 120.034805,230.110123 
	C118.086121,232.514069 116.633690,234.993835 115.932785,237.670395 
	C111.982216,252.756592 107.241104,267.723846 104.617599,283.048035 
	C101.045685,303.911896 98.744049,325.318542 102.581581,346.230652 
	C113.006409,403.039337 144.522156,442.175232 201.065033,459.181305 
	C228.144608,467.325806 256.034454,470.759033 283.990814,473.909119 
	C293.312805,474.959503 301.729340,478.342590 308.825562,484.568817 
	C318.774414,493.297882 320.830170,503.462860 315.219391,515.127502 
	C315.145264,515.281616 315.449799,515.617920 315.578918,515.868530 
	C321.438934,513.868774 327.628632,507.309540 328.930573,499.233246 
	C331.899841,480.813812 329.886353,463.489685 313.829041,450.942352 
	C300.546661,440.563354 285.210907,434.167419 269.312042,429.029907 
	C256.981903,425.045502 244.613327,421.180023 231.518158,417.035889 
M131.028214,423.465363 
	C128.852020,420.989655 126.675842,418.513947 124.499657,416.038269 
	C123.994789,416.321686 123.489914,416.605103 122.985046,416.888519 
	C126.803879,424.323578 129.738876,432.399963 134.590393,439.085602 
	C159.122452,472.891907 189.251068,500.291138 227.569199,517.966553 
	C240.759857,524.051086 253.923599,529.923218 269.016785,528.845825 
	C281.084015,527.984375 292.981506,526.636169 302.876892,518.763062 
	C311.663177,511.772339 312.719727,500.698425 305.974945,491.901031 
	C301.308380,485.814209 294.898987,483.761536 287.736938,482.998016 
	C269.204803,481.022400 250.511642,479.979340 232.177856,476.840515 
	C193.068390,470.144867 157.626923,455.753204 131.028214,423.465363 
M327.401337,139.830917 
	C322.115784,143.696732 316.830231,147.562561 311.897644,151.170227 
	C321.419373,154.675369 326.901672,163.488754 331.091431,174.824417 
	C335.090759,162.282104 342.905762,155.502563 355.821198,152.951248 
	C342.825470,148.640808 336.657654,140.129089 333.993835,128.172989 
	C331.681763,132.353561 329.768982,135.812225 327.401337,139.830917 
z"/>
<path fill="#090909" opacity="1.000000" stroke="none" 
	d="
M506.900726,476.935059 
	C512.149536,470.933990 517.188049,465.221710 521.588318,460.233093 
	C523.822937,463.180573 525.650757,466.449890 528.264893,468.869781 
	C534.717712,474.843170 541.531128,480.427032 548.062500,486.049438 
	C550.151917,484.749725 551.718872,483.775055 554.565430,482.004333 
	C553.690613,484.210785 553.563293,485.135254 553.052002,485.729279 
	C546.865417,492.918152 540.631470,500.066437 534.383911,507.202637 
	C533.399231,508.327362 532.320618,509.376556 531.227234,510.398376 
	C524.084290,517.073853 516.819824,518.550964 509.934113,514.754456 
	C502.130463,510.451843 497.328918,501.435486 499.563934,492.881287 
	C500.992249,487.414673 504.251831,482.426514 506.900726,476.935059 
M509.100159,479.763733 
	C502.894318,489.870178 505.280792,499.446045 515.515991,505.507721 
	C524.522461,510.841705 533.845947,506.596954 541.190613,493.538788 
	C532.955444,486.381165 524.655518,479.167175 516.057373,471.694031 
	C513.651733,474.447449 511.593658,476.802979 509.100159,479.763733 
z"/>
<path fill="#0B0B0B" opacity="1.000000" stroke="none" 
	d="
M71.101685,307.978058 
	C65.483345,312.099335 60.179996,316.031464 55.563068,319.454620 
	C53.663383,316.287598 52.135914,312.782196 49.695812,310.110260 
	C48.607506,308.918579 45.569157,308.842926 43.615612,309.240997 
	C39.194572,310.141937 37.481716,315.491425 39.210186,322.919495 
	C49.492840,322.919495 59.940289,322.989105 70.383247,322.804657 
	C71.356125,322.787445 72.508751,321.296875 73.195679,320.241577 
	C73.799377,319.314148 73.866783,318.037659 74.171043,316.915314 
	C74.589111,316.969879 75.007187,317.024414 75.425262,317.078979 
	C75.425262,324.217987 75.425262,331.356995 75.425262,338.496002 
	C75.113701,338.616028 74.802147,338.736023 74.490585,338.856049 
	C73.849373,337.079254 73.208160,335.302460 72.365768,332.968201 
	C62.020821,332.968201 51.388950,332.778015 40.780907,333.194641 
	C39.360256,333.250458 38.060040,336.372925 36.374226,338.489349 
	C36.147518,338.084656 35.331604,337.300232 35.319679,336.503784 
	C35.190144,327.852264 35.150440,319.198730 35.180740,310.546082 
	C35.186501,308.900421 35.476074,307.225739 35.856041,305.616699 
	C37.432899,298.939087 44.098072,296.509186 49.270443,301.002075 
	C51.560379,302.991180 53.034660,305.919312 55.421986,309.157379 
	C61.881157,303.739014 68.693161,298.024689 75.499527,292.315063 
	C75.499527,295.971680 75.499527,300.272430 75.499527,304.867920 
	C74.389862,305.661804 72.903259,306.725342 71.101685,307.978058 
z"/>
<path fill="#080808" opacity="1.000000" stroke="none" 
	d="
M560.098633,422.832947 
	C553.291382,425.309235 546.894714,427.673889 540.628540,429.990295 
	C539.764587,425.242462 543.848938,418.456848 549.085266,416.960602 
	C555.746704,415.057159 562.382812,413.065094 568.293274,411.327759 
	C568.966553,414.920410 569.241211,418.693268 570.519165,422.088440 
	C571.042114,423.477783 573.640564,424.560028 575.458435,424.895844 
	C580.253296,425.781616 583.296021,422.218231 585.010437,413.774475 
	C575.335571,410.233154 565.633850,406.427795 555.716614,403.307495 
	C554.104126,402.800140 551.537476,405.325439 548.248840,407.063721 
	C550.906921,399.822266 553.354553,393.154175 555.802185,386.486084 
	C556.534241,386.387604 557.266296,386.289124 557.998352,386.190643 
	C554.615112,393.865997 560.359070,394.205231 564.301575,395.735107 
	C570.793701,398.254364 577.404419,400.466156 583.935242,402.888245 
	C586.950195,404.006409 589.713989,404.880310 591.045776,400.640869 
	C591.183594,400.201874 592.277405,400.063141 594.229431,399.228455 
	C589.908264,410.584259 586.497009,421.028656 581.949280,430.952271 
	C579.162903,437.032654 571.169800,436.716736 567.887329,430.804779 
	C566.416626,428.155914 566.063538,424.886566 565.044128,421.346100 
	C563.826477,421.715332 562.167908,422.218292 560.098633,422.832947 
z"/>
<path fill="#090909" opacity="1.000000" stroke="none" 
	d="
M171.329315,123.263786 
	C157.078964,125.974182 143.349167,109.177635 150.346588,95.028793 
	C155.913727,83.771996 165.595367,77.030273 178.147293,75.532898 
	C185.805344,74.619347 191.534912,78.612831 195.364334,85.227417 
	C199.670273,92.665054 199.817413,100.222626 195.019379,107.355232 
	C189.434219,115.657928 181.701599,121.164696 171.329315,123.263786 
M174.866745,82.163338 
	C162.814529,81.351051 153.792221,90.812561 157.119949,101.002235 
	C159.082703,107.012268 162.878082,111.829536 168.409348,115.035095 
	C174.110703,118.339233 179.878448,117.561928 185.425079,112.990601 
	C190.541534,108.773819 192.165131,103.701126 189.812851,97.450928 
	C187.213547,90.544418 182.933929,84.992981 174.866745,82.163338 
z"/>
<path fill="#080808" opacity="1.000000" stroke="none" 
	d="
M471.933716,107.923813 
	C476.482147,102.184845 480.818848,96.732269 485.071594,91.385254 
	C483.728271,89.332138 482.671997,87.717796 481.615753,86.103455 
	C481.947235,85.795517 482.278687,85.487587 482.610168,85.179657 
	C483.596069,85.824585 484.638550,86.397980 485.558716,87.126007 
	C491.692993,91.979614 497.858948,96.795921 503.901398,101.762138 
	C509.841736,106.644394 511.541992,110.735023 509.637817,114.811401 
	C507.601593,119.170609 502.975708,120.544701 495.627930,118.986115 
	C495.160583,118.886978 494.674591,118.875587 494.000580,118.801849 
	C494.000580,127.719948 494.000580,136.538849 494.000580,145.257477 
	C485.464966,141.374756 483.656799,138.586288 484.268829,130.021530 
	C484.482483,127.031540 484.768372,124.043724 484.872925,121.049736 
	C484.977264,118.061638 484.895782,115.067047 484.895782,112.809959 
	C488.800079,113.229591 492.651398,114.057030 496.443573,113.842026 
	C497.904694,113.759186 499.705627,111.541382 500.525604,109.886864 
	C502.540253,105.821739 500.102356,101.984268 492.922852,97.625336 
	C485.855347,106.280128 478.737854,114.996170 471.703857,123.609978 
	C473.147797,125.708542 474.226349,127.276062 475.304901,128.843582 
	C474.890137,129.200516 474.475342,129.557449 474.060577,129.914398 
	C468.532166,125.402344 463.003723,120.890297 457.362762,116.286407 
	C458.245697,115.504700 458.651306,115.080322 458.695892,115.115387 
	C463.117828,118.590210 465.710205,115.827316 468.196533,112.424065 
	C469.274536,110.948471 470.541077,109.610626 471.933716,107.923813 
z"/>
<path fill="#080808" opacity="1.000000" stroke="none" 
	d="
M571.969360,381.228333 
	C560.795593,374.302277 557.427979,361.003479 562.734253,345.924927 
	C566.611084,334.908447 574.465881,330.155914 585.924316,331.893860 
	C595.443237,333.337646 602.250122,340.741272 602.777588,351.298462 
	C603.039307,356.536713 602.592712,362.016907 601.294800,367.087708 
	C597.478455,381.997345 586.569946,387.176331 571.969360,381.228333 
M580.800537,372.962372 
	C582.459290,372.948853 584.129211,373.054779 585.774963,372.901733 
	C594.245178,372.113953 599.201050,366.626099 599.652649,357.628265 
	C600.037476,349.960876 595.848389,344.461334 587.676941,343.065613 
	C583.532715,342.357819 579.044250,342.270264 574.935120,343.062439 
	C567.892029,344.420197 564.253540,349.594055 563.946655,357.063812 
	C563.642883,364.457550 566.585388,368.889954 573.673767,371.400269 
	C575.686279,372.112976 577.841919,372.421539 580.800537,372.962372 
z"/>
<path fill="#0C0C0C" opacity="1.000000" stroke="none" 
	d="
M123.042526,519.749756 
	C123.286079,522.316040 123.772873,524.566772 124.328079,527.133850 
	C117.145576,523.332031 113.631958,516.200623 114.463097,509.000702 
	C115.716843,498.139801 116.610321,487.237366 117.656929,476.352570 
	C117.244072,476.123016 116.831223,475.893463 116.418365,475.663910 
	C110.599251,480.733765 104.571236,485.596100 99.145889,491.057098 
	C98.120667,492.088989 99.491440,495.501221 98.988792,498.582672 
	C95.539047,494.512817 92.089302,490.442963 88.639557,486.373077 
	C88.932068,485.689453 89.224571,485.005829 89.517075,484.322205 
	C94.498474,490.794434 97.690521,486.306519 101.087875,483.553925 
	C104.970016,480.408539 108.778923,477.171509 112.581360,473.929413 
	C116.252930,470.798950 119.875702,467.611298 124.644890,463.472443 
	C125.565849,466.922119 127.092255,469.763794 126.925369,472.502289 
	C126.115540,485.791412 124.851662,499.052887 123.625755,513.802429 
	C130.814224,507.443848 137.207352,501.882629 143.424133,496.130829 
	C143.987228,495.609833 143.563675,493.830719 143.326004,492.692749 
	C143.111465,491.665588 142.523514,490.716400 142.100250,489.732819 
	C142.543289,489.470642 142.986328,489.208466 143.429367,488.946289 
	C146.990906,493.138397 150.552444,497.330505 154.182556,501.603302 
	C153.227158,502.222137 152.747223,502.601501 152.700119,502.553772 
	C147.762878,497.550446 144.325912,501.680176 140.817581,504.582703 
	C134.916840,509.464569 129.124008,514.476807 123.042526,519.749756 
z"/>
<path fill="#0C0C0C" opacity="1.000000" stroke="none" 
	d="
M406.276917,88.170883 
	C405.412506,89.204475 404.161743,90.545288 403.970612,90.408257 
	C401.897888,88.922050 399.358063,87.572479 398.144958,85.487778 
	C391.467926,74.013283 385.126831,62.343307 378.661438,50.745445 
	C378.604797,50.643776 378.424438,50.611053 377.856049,50.310051 
	C375.694489,58.418861 373.267426,66.364876 371.669769,74.474297 
	C371.341888,76.138611 374.116791,78.414238 376.111755,81.372261 
	C370.268250,79.767960 364.969482,78.313217 359.670715,76.858467 
	C359.480225,76.263084 359.289764,75.667702 359.099274,75.072311 
	C368.062195,76.912712 367.675446,70.203094 369.260468,65.482300 
	C370.791107,60.923557 371.865875,56.213837 373.297516,51.619244 
	C374.793121,46.819435 377.432190,41.847298 369.134094,39.465881 
	C369.582672,39.043266 370.031281,38.620651 370.479889,38.198032 
	C373.281403,38.903160 376.047363,39.889580 378.892578,40.249607 
	C383.534058,40.836941 385.882324,43.511009 387.902924,47.551682 
	C393.014801,57.773956 398.636017,67.741516 404.761017,79.126801 
	C407.114166,70.330482 409.390411,63.058182 410.803467,55.621861 
	C411.133698,53.883995 408.536652,51.589886 407.292358,49.561417 
	C409.600281,48.283100 420.439423,51.477520 422.116241,54.987873 
	C415.957458,52.643581 415.046814,56.782421 413.919952,60.941597 
	C411.489136,69.913803 408.904388,78.844315 406.276917,88.170883 
z"/>
<path fill="#0B0B0B" opacity="1.000000" stroke="none" 
	d="
M181.552460,549.580627 
	C180.009903,551.783691 178.725983,553.728760 177.368484,555.621033 
	C175.286179,558.523682 172.856812,561.367554 177.436768,564.262207 
	C177.700180,564.428650 177.340759,565.580505 177.197357,567.009583 
	C170.813110,562.516724 164.977005,558.409668 159.023941,554.220215 
	C159.551498,553.606873 160.067764,552.900696 160.136475,552.941833 
	C165.569901,556.195923 167.719940,551.998779 170.151642,548.539124 
	C173.307617,544.048889 176.440598,539.541931 179.532104,535.007202 
	C182.024414,531.351318 181.879562,527.494507 178.809753,524.536987 
	C176.004623,521.834473 172.613434,519.573364 169.139343,517.777954 
	C165.512207,515.903564 161.820282,516.820984 159.336060,520.164246 
	C154.975128,526.033203 150.545425,531.903442 146.879654,538.201111 
	C145.914139,539.859741 147.643082,543.086731 148.308701,546.480652 
	C143.864151,543.511963 139.525375,540.613953 135.125244,537.674927 
	C135.560867,537.008240 135.995987,536.239197 136.054764,536.266968 
	C141.313385,538.750793 143.266846,534.596008 145.630859,531.459717 
	C148.734787,527.341675 151.612564,523.051025 154.772491,518.977966 
	C159.773941,512.531372 165.590698,510.558502 172.743011,514.337097 
	C178.195404,517.217590 183.286850,521.282593 187.560638,525.755310 
	C192.061996,530.466248 191.666382,534.750549 188.017532,540.264221 
	C185.998047,543.315735 183.861755,546.289917 181.552460,549.580627 
z"/>
<path fill="#0B0B0B" opacity="1.000000" stroke="none" 
	d="
M321.969482,67.588158 
	C322.425385,59.835487 322.915558,52.527996 323.263611,45.213737 
	C323.589233,38.369324 323.522949,38.366169 317.242310,35.482212 
	C329.967377,35.482212 341.872833,35.482212 354.516754,35.482212 
	C353.513306,39.556213 352.805786,42.428707 352.098297,45.301201 
	C351.573853,45.218178 351.049377,45.135151 350.524933,45.052124 
	C350.211761,43.554726 349.898621,42.057331 349.438995,39.859715 
	C344.560486,39.483753 339.523682,39.095589 334.048096,38.673611 
	C333.605072,43.689812 333.216980,48.083866 332.767639,53.171684 
	C338.335266,52.218365 344.597961,57.323257 348.651276,49.287720 
	C348.651276,53.485832 348.651276,57.683941 348.651276,62.539349 
	C346.283691,60.381695 344.637390,57.923351 342.385254,57.076683 
	C339.700653,56.067451 336.496582,56.440014 332.879364,56.165504 
	C332.535706,61.502514 332.210052,66.560272 331.848541,72.174599 
	C336.433258,72.424370 340.704041,71.999298 344.593964,73.022392 
	C350.498199,74.575249 349.542969,67.463501 353.950226,66.198441 
	C353.474854,69.955902 353.090210,72.996002 352.625336,76.670403 
	C341.084015,76.039551 329.688171,75.416649 318.395752,74.799408 
	C319.588867,72.521858 320.765320,70.276123 321.969482,67.588158 
z"/>
<path fill="#0B0B0B" opacity="1.000000" stroke="none" 
	d="
M59.929443,379.882660 
	C58.356075,380.126709 57.172306,380.190491 56.066967,380.518524 
	C51.278019,381.939819 44.172337,380.019104 44.931240,389.575897 
	C44.403561,389.302765 43.875881,389.029602 43.348202,388.756439 
	C41.125591,377.068634 38.902977,365.380829 36.588253,353.208618 
	C40.191048,353.208618 43.059696,353.208618 45.928345,353.208618 
	C46.096600,353.520599 46.264851,353.832581 46.433105,354.144531 
	C45.024559,355.088593 43.616009,356.032654 41.674507,357.333923 
	C42.349152,361.876923 43.073357,366.753632 43.892403,372.269043 
	C48.824448,371.532959 53.310471,370.863464 58.518108,370.086273 
	C56.029377,364.903992 59.804031,357.484650 50.411064,356.434814 
	C50.578384,355.920563 50.745708,355.406311 50.913033,354.892029 
	C55.126007,354.159180 59.338982,353.426300 63.551956,352.693420 
	C63.923016,353.006592 64.294075,353.319763 64.665138,353.632935 
	C56.670959,357.689758 60.616470,363.428223 61.385731,369.413025 
	C66.645111,368.510529 71.623482,367.656281 77.343117,366.674805 
	C74.269249,359.580566 79.023979,349.281891 65.416939,347.959564 
	C65.952477,347.475891 66.488022,346.992218 67.023560,346.508545 
	C70.043007,346.224762 73.062454,345.940979 76.757187,345.593750 
	C78.778473,357.070160 80.772026,368.389099 82.765587,379.708069 
	C78.717239,375.080688 73.977753,377.911774 69.668991,378.184509 
	C66.542313,378.382446 63.458214,379.253235 59.929443,379.882660 
z"/>
<path fill="#0A0A0A" opacity="1.000000" stroke="none" 
	d="
M54.209709,249.580780 
	C53.664505,250.624817 52.802441,252.069733 52.148487,251.981003 
	C47.295971,251.322540 46.262665,255.019241 45.053322,258.169067 
	C43.527443,262.143311 42.820286,266.338287 46.161118,269.862518 
	C48.959522,272.814545 53.052048,272.050018 55.144146,267.982513 
	C57.030823,264.314362 58.297729,260.332031 59.940880,256.532806 
	C61.732162,252.391083 64.121391,248.900940 69.333031,248.940887 
	C74.767281,248.982529 78.642868,251.648148 80.566948,256.539856 
	C84.728943,267.121216 81.383987,276.641479 75.904884,286.050293 
	C72.615692,285.056702 69.509911,284.118530 65.374687,282.869385 
	C66.567780,281.748810 67.477470,280.356018 67.996567,280.488892 
	C74.193199,282.075409 76.182541,277.450714 77.554848,273.362030 
	C78.647163,270.107544 78.598801,266.174438 77.940483,262.757660 
	C77.628708,261.139496 74.801559,259.131439 72.941200,258.934784 
	C71.119682,258.742188 68.304970,260.128815 67.292290,261.701782 
	C65.074234,265.147003 63.729919,269.153046 62.012539,272.922668 
	C59.368782,278.725708 56.061626,280.961121 51.008423,280.384979 
	C45.650093,279.774017 41.857899,276.150116 40.827175,270.370972 
	C39.323780,261.941650 41.823738,254.349564 45.920094,246.681076 
	C48.729210,247.582886 51.359211,248.427200 54.209709,249.580780 
z"/>
<path fill="#0A0A0A" opacity="1.000000" stroke="none" 
	d="
M471.487488,526.633911 
	C473.241577,525.305420 474.704407,524.205261 476.165222,523.102295 
	C482.706818,518.163086 482.706604,518.162781 478.949249,510.007111 
	C477.113403,510.576569 475.247101,511.155457 473.380829,511.734375 
	C473.182434,511.280640 472.984070,510.826904 472.785675,510.373169 
	C476.985687,507.225189 481.185699,504.077209 485.179047,501.084137 
	C482.577087,515.290283 488.925934,527.998901 490.455231,541.271912 
	C490.549683,542.091797 491.076202,542.933472 490.953094,543.692200 
	C490.668732,545.445435 490.597687,547.667358 489.500275,548.712524 
	C488.672729,549.500671 486.151825,549.259705 484.790222,548.617188 
	C475.483002,544.225342 466.362305,539.433228 457.008331,535.148010 
	C453.423859,533.505859 449.385773,532.853943 444.922882,531.568970 
	C450.078430,527.581116 455.705688,523.228394 461.332977,518.875610 
	C461.712463,519.189209 462.091919,519.502808 462.471405,519.816467 
	C461.458282,521.383179 460.445160,522.949890 459.171631,524.919312 
	C463.113495,526.450256 466.121826,531.849792 471.487488,526.633911 
M484.932129,533.453003 
	C484.175873,530.021667 483.419617,526.590332 482.533691,522.570618 
	C478.452637,525.658203 474.910950,528.337708 470.940155,531.341919 
	C476.330994,534.030640 480.833435,536.276184 485.839508,538.772949 
	C485.488037,536.813293 485.259888,535.541138 484.932129,533.453003 
z"/>
<path fill="#0B0B0B" opacity="1.000000" stroke="none" 
	d="
M524.294250,164.532135 
	C522.168701,161.675949 520.275024,159.153290 518.378662,156.632660 
	C513.729309,150.452957 512.584290,150.240845 505.387360,154.352859 
	C506.041504,156.008469 506.706726,157.692047 507.371918,159.375641 
	C506.914032,159.665955 506.456116,159.956268 505.998199,160.246597 
	C502.812439,156.076477 499.626648,151.906357 496.081604,147.265961 
	C510.879669,150.722137 523.522949,143.987076 536.791992,142.579376 
	C537.774719,142.475128 538.757019,141.911377 539.700439,141.996033 
	C541.153687,142.126419 543.231750,142.187958 543.842834,143.091537 
	C544.634033,144.261383 544.856995,146.511902 544.261475,147.809006 
	C540.665527,155.640747 536.513672,163.222427 533.055359,171.110321 
	C530.697388,176.488663 525.434387,181.170792 528.759949,188.232483 
	C528.296875,188.374588 527.833740,188.516678 527.370605,188.658783 
	C523.065918,183.003677 518.761169,177.348557 514.456421,171.693451 
	C514.827393,171.301056 515.198364,170.908676 515.569336,170.516281 
	C516.955627,171.510757 518.341919,172.505234 520.561035,174.097168 
	C521.933472,170.901093 523.229187,167.883835 524.294250,164.532135 
M520.487610,149.923615 
	C520.185913,150.769989 519.367493,151.965240 519.665527,152.406738 
	C521.772827,155.528519 524.109253,158.495621 526.774231,162.047379 
	C529.391541,156.882797 531.716003,152.296051 534.393066,147.013596 
	C529.380371,148.074417 525.338196,148.929855 520.487610,149.923615 
z"/>
<path fill="#0D0D0D" opacity="1.000000" stroke="none" 
	d="
M590.243408,243.958908 
	C590.978821,241.970932 591.297974,240.123291 591.745605,237.531662 
	C592.580017,238.196472 593.723511,238.634186 593.880920,239.303650 
	C596.387268,249.968658 598.767456,260.663330 601.283630,271.826935 
	C598.172668,272.277130 595.323547,272.689453 592.474426,273.101776 
	C592.180725,272.675812 591.887024,272.249847 591.593323,271.823883 
	C592.888916,270.740143 594.184448,269.656403 596.303162,267.884064 
	C595.578308,264.022034 594.704651,259.367157 593.713379,254.085541 
	C588.745972,255.071625 584.292236,255.955734 579.536255,256.899841 
	C580.577454,262.560120 579.705322,268.552551 588.030273,269.659790 
	C581.065063,273.517548 575.719360,274.011932 574.086182,271.521332 
	C579.044861,268.622620 579.260010,267.111237 575.807312,257.804688 
	C571.557373,258.892059 567.186768,259.808258 562.987061,261.229492 
	C561.960083,261.577057 561.260132,263.505829 560.840271,264.842804 
	C560.489624,265.959656 560.768372,267.274139 560.768372,268.501099 
	C560.228882,268.579590 559.689392,268.658081 559.149902,268.736572 
	C557.422302,261.356750 555.694763,253.976944 553.938416,246.474182 
	C555.030212,246.370865 555.608704,246.261841 555.626892,246.322113 
	C557.338928,251.989166 561.234314,251.222412 565.631714,250.042831 
	C573.651245,247.891586 581.757263,246.062637 590.243408,243.958908 
z"/>
<path fill="#0C0C0C" opacity="1.000000" stroke="none" 
	d="
M283.524445,77.880630 
	C276.838501,76.643478 271.336945,74.192566 267.628143,68.709457 
	C260.377777,57.990490 264.230957,44.911888 276.643707,39.255074 
	C286.150269,34.922707 296.207367,34.205360 306.854248,36.247314 
	C306.854248,38.757271 306.952301,41.382881 306.791382,43.992519 
	C306.746155,44.726151 305.940369,45.412884 305.483398,46.121124 
	C304.904266,45.508347 304.326538,44.894245 303.745789,44.283031 
	C302.274353,42.734417 301.082214,40.489243 299.279114,39.764118 
	C292.648010,37.097412 282.429321,39.662621 278.115570,44.826954 
	C273.239594,50.664341 273.796936,57.219269 276.526489,63.639008 
	C279.341827,70.260498 286.767578,74.196419 294.610352,73.567688 
	C297.407837,73.343430 300.224365,72.806335 302.920593,72.026314 
	C305.535828,71.269730 308.007812,70.018112 310.542725,68.983887 
	C310.825165,69.336151 311.107605,69.688408 311.390076,70.040665 
	C310.018707,71.360229 308.853729,73.061462 307.240509,73.933769 
	C299.968109,77.866211 292.047943,78.476486 283.524445,77.880630 
z"/>
<path fill="#0B0B0B" opacity="1.000000" stroke="none" 
	d="
M48.372826,399.533264 
	C50.378323,400.844177 51.939083,402.766296 53.695789,402.966156 
	C65.106926,404.264465 76.572937,405.077698 87.988464,406.343048 
	C89.903297,406.555267 92.416664,407.786957 93.237389,409.310455 
	C93.836197,410.421936 92.547310,413.177460 91.345200,414.528687 
	C84.370125,422.369202 77.141647,429.983612 70.064178,437.734070 
	C67.537773,440.500732 64.394409,443.133575 67.101379,447.920502 
	C66.386993,448.024567 65.672600,448.128662 64.958214,448.232727 
	C62.202011,441.364258 59.445805,434.495758 56.689602,427.627258 
	C57.131611,427.317200 57.573624,427.007141 58.015633,426.697083 
	C59.200024,428.124084 60.384418,429.551086 61.057632,430.362183 
	C68.226837,424.110992 75.443825,417.818115 82.660820,411.525238 
	C82.408073,410.942139 82.155327,410.359009 81.902580,409.775909 
	C72.465889,409.111725 63.029194,408.447510 53.126812,407.750519 
	C53.266571,410.475159 53.371849,412.527527 53.477123,414.579895 
	C52.985535,414.717957 52.493946,414.856018 52.002354,414.994110 
	C50.159355,410.105896 48.303738,405.222229 46.543995,400.304230 
	C46.498680,400.177551 47.503590,399.675079 48.372826,399.533264 
z"/>
<path fill="#0B0B0B" opacity="1.000000" stroke="none" 
	d="
M211.135803,81.886406 
	C209.109833,76.925659 207.125809,72.361969 205.338837,67.722397 
	C204.170853,64.689903 203.026108,62.082981 198.986603,64.033531 
	C198.531586,64.253250 197.665100,63.620815 195.592651,62.893059 
	C207.630936,57.984325 218.389160,53.597549 229.469238,49.079529 
	C230.306351,52.554878 232.501678,55.345287 231.056183,59.317356 
	C226.011154,53.924774 224.387100,54.025078 213.466827,59.954071 
	C214.164154,62.001717 214.851395,64.161049 215.636047,66.284370 
	C216.436203,68.449661 217.332108,70.579575 218.324387,73.072380 
	C221.078400,72.009163 223.804840,71.278023 226.163483,69.911888 
	C227.362045,69.217667 227.903717,67.383347 228.731781,66.057831 
	C229.169647,65.356865 229.584854,64.641739 230.010284,63.933014 
	C230.612808,64.368652 231.493332,64.674324 231.768478,65.262978 
	C232.819901,67.512367 233.812134,69.810867 234.544571,72.178246 
	C234.875748,73.248688 234.545654,74.523720 234.515564,75.705933 
	C233.570816,75.088120 232.603210,74.501709 231.692062,73.837776 
	C231.302322,73.553772 231.030258,73.108276 230.230667,72.194283 
	C226.959442,73.322220 223.463181,74.527740 219.381897,75.934998 
	C221.663727,81.174057 223.742599,85.947136 225.885361,90.866913 
	C228.395065,90.460564 230.512848,90.117676 232.630630,89.774780 
	C232.776031,90.275673 232.921417,90.776566 233.066803,91.277458 
	C226.112625,94.110886 219.158447,96.944305 212.110748,99.815834 
	C211.822601,98.972343 211.485535,98.131912 211.534637,98.108696 
	C218.674332,94.734802 213.930466,90.107338 212.801849,85.916199 
	C212.460403,84.648224 211.784225,83.470383 211.135803,81.886406 
z"/>
<path fill="#0A0A0A" opacity="1.000000" stroke="none" 
	d="
M71.406281,188.450699 
	C69.394958,191.912308 67.644661,195.114578 65.731590,198.614655 
	C67.145142,199.869812 68.480278,201.055359 69.819458,202.236542 
	C68.305008,205.062836 68.305008,205.062836 60.369270,200.338974 
	C67.587952,187.840469 74.807030,175.341278 82.204903,162.532501 
	C84.938812,164.275452 87.514442,165.917496 90.090065,167.559540 
	C90.029594,168.109192 89.969124,168.658844 89.908653,169.208496 
	C87.818245,169.049454 85.727837,168.890396 83.051498,168.686768 
	C81.216507,171.649368 79.125854,175.024750 76.679100,178.975052 
	C85.878181,184.187698 94.834633,189.547104 104.131294,194.231308 
	C105.563507,194.952957 108.559547,192.570892 112.238266,191.038605 
	C108.061028,198.364502 104.344795,204.881912 100.386810,211.823303 
	C99.546898,210.766602 98.945862,210.222717 99.028282,210.083481 
	C102.116013,204.868088 98.733864,202.867386 94.744400,200.782410 
	C86.979431,196.724319 79.351814,192.403412 71.406281,188.450699 
z"/>
<path fill="#0A0A0A" opacity="1.000000" stroke="none" 
	d="
M446.094269,92.133255 
	C445.257538,93.796745 444.603577,95.140770 443.867645,96.438301 
	C441.733551,100.201004 439.031860,103.991196 444.914185,106.981773 
	C445.061371,107.056602 444.836884,107.862450 444.689331,109.203293 
	C437.684540,105.407852 431.087830,101.833511 424.491089,98.259178 
	C424.430817,97.500237 424.370544,96.741295 424.310272,95.982361 
	C432.576355,101.144951 433.526276,94.515839 435.802429,90.401588 
	C439.647980,83.450615 443.241882,76.360405 447.216339,68.806595 
	C444.029694,67.166656 441.124329,64.808006 437.933563,64.321587 
	C435.664795,63.975731 433.011414,66.152863 429.169952,67.779869 
	C431.211121,63.506950 432.536469,60.732491 433.977966,57.714848 
	C447.060577,64.676895 459.878265,71.497948 472.706238,78.324486 
	C471.570465,80.248650 470.713318,82.074860 469.499512,83.621094 
	C468.734100,84.596169 467.435242,85.152489 466.375671,85.896667 
	C466.343597,84.720238 466.216553,83.535973 466.312683,82.370110 
	C466.377319,81.586525 466.757721,80.828979 467.111145,79.692200 
	C463.600616,77.682289 460.180054,75.723877 456.169464,73.427643 
	C452.796661,79.665497 449.518127,85.729012 446.094269,92.133255 
z"/>
<path fill="#0B0B0B" opacity="1.000000" stroke="none" 
	d="
M114.018791,146.082520 
	C115.571976,146.122070 116.675079,146.122070 118.269386,146.122070 
	C116.399849,140.140808 114.879250,134.363998 112.755630,128.818085 
	C111.447365,125.401512 111.416275,122.777107 114.968872,120.310173 
	C115.370590,121.271309 115.881859,122.177719 116.133949,123.151237 
	C117.383820,127.978127 118.981606,132.764191 119.671967,137.674988 
	C120.673531,144.799469 124.788612,149.245132 130.530975,152.882111 
	C133.331161,154.655624 135.645432,156.151855 137.928589,152.390808 
	C138.158096,152.012756 139.011169,152.013229 140.534271,152.789688 
	C135.996780,158.617020 131.459274,164.444351 126.921768,170.271683 
	C126.410332,169.967133 125.898895,169.662567 125.387451,169.358002 
	C126.129150,167.761948 126.870850,166.165894 127.636414,164.518463 
	C120.277878,154.351624 101.445267,150.820724 88.860237,157.315048 
	C88.666206,150.465347 93.581566,144.946014 100.127998,145.054260 
	C104.612457,145.128387 109.088760,145.695969 114.018791,146.082520 
z"/>
<path fill="#0A0A0A" opacity="1.000000" stroke="none" 
	d="
M564.803772,317.184174 
	C564.090637,307.044098 563.417786,297.350189 562.833862,288.936951 
	C566.348999,289.547974 569.546265,290.636017 572.710205,290.546478 
	C580.018188,290.339630 587.302979,289.404114 594.611267,289.080139 
	C598.444824,288.910187 601.175476,288.201538 600.690430,283.526001 
	C600.647888,283.116089 601.411438,282.622559 602.752502,281.055267 
	C603.305420,289.512665 603.777344,296.731873 604.249329,303.951111 
	C603.664246,304.036346 603.079163,304.121582 602.494019,304.206818 
	C601.967773,302.565857 601.441528,300.924927 600.718140,298.669098 
	C589.728943,299.443146 578.675293,300.221710 567.259033,301.025818 
	C567.615112,305.612640 568.547607,309.797577 568.110291,313.834167 
	C567.460815,319.830139 574.993164,317.319244 575.848877,321.660126 
	C566.664673,322.851044 565.544739,322.421173 564.803772,317.184174 
z"/>
<path fill="#0A0A0A" opacity="1.000000" stroke="none" 
	d="
M547.926208,219.378693 
	C550.737732,219.747971 553.302551,219.820511 555.867432,219.893051 
	C555.901978,220.473206 555.936523,221.053360 555.971130,221.633514 
	C552.950378,222.742279 549.929626,223.851044 546.152405,225.237457 
	C540.975281,215.042877 535.805908,204.863495 531.084961,195.567215 
	C534.367554,195.010437 537.502747,195.087967 540.077209,193.924545 
	C547.024109,190.785202 553.704956,187.062134 560.546936,183.683319 
	C563.783875,182.084839 566.513672,180.477203 563.982727,176.253250 
	C563.782715,175.919464 564.245911,175.188293 564.835815,173.108627 
	C568.776917,180.703659 572.089661,187.087814 575.402466,193.471970 
	C575.068115,193.786758 574.733826,194.101532 574.399536,194.416321 
	C573.021179,193.210846 571.642883,192.005386 569.655029,190.266846 
	C560.139893,195.106644 550.284180,200.119644 539.854004,205.424881 
	C542.609497,210.233734 545.144470,214.657852 547.926208,219.378693 
z"/>
<path fill="#090909" opacity="1.000000" stroke="none" 
	d="
M103.251389,444.919983 
	C104.130470,442.268372 104.660507,439.799652 105.392624,436.389709 
	C109.324356,442.871521 113.067444,449.042328 116.810532,455.213135 
	C116.508072,455.574463 116.205612,455.935760 115.903145,456.297058 
	C114.449226,455.083557 112.995308,453.870026 110.902924,452.123627 
	C101.472153,457.826294 91.762062,463.697845 82.212845,469.472137 
	C82.834702,472.028534 83.272125,473.826691 83.709541,475.624878 
	C83.246178,475.798248 82.782814,475.971588 82.319450,476.144958 
	C78.545532,469.952881 74.771606,463.760773 70.738884,457.144073 
	C72.014755,457.039764 73.064301,456.749176 73.189499,456.973785 
	C76.056061,462.116821 79.244064,459.522583 82.513771,457.506378 
	C89.284790,453.331024 96.103348,449.232788 103.251389,444.919983 
z"/>
<path fill="#0A0A0A" opacity="1.000000" stroke="none" 
	d="
M526.158691,452.918762 
	C529.266113,446.361267 532.701111,440.043732 536.136169,433.726166 
	C536.632202,433.891632 537.128235,434.057098 537.624329,434.222565 
	C537.257935,436.006012 536.891541,437.789459 536.328064,440.532623 
	C545.769592,445.975525 555.609192,451.647919 565.648621,457.435486 
	C567.139160,455.668732 568.276001,454.321167 569.449219,452.930511 
	C570.763062,455.091705 565.500427,465.983154 560.133301,472.525116 
	C559.731445,472.253937 558.947571,471.781128 558.972473,471.733765 
	C561.900208,466.168243 557.790100,464.376434 554.037598,462.276398 
	C548.828735,459.361237 543.623413,456.428741 538.542908,453.298584 
	C534.464539,450.785889 530.565369,448.568909 526.158691,452.918762 
z"/>
<path fill="#0A0A0A" opacity="1.000000" stroke="none" 
	d="
M68.314102,221.766602 
	C73.677864,223.659454 78.737030,225.263382 83.652534,227.226959 
	C87.625984,228.814178 91.254028,230.228561 92.709763,224.060486 
	C94.675697,227.331711 88.714378,243.702484 84.966904,245.003357 
	C87.893860,239.454117 84.531319,238.046860 80.368408,236.679504 
	C73.294182,234.355881 66.340706,231.662292 59.350906,229.085068 
	C56.066818,227.874191 52.907757,226.821716 51.679844,231.674728 
	C51.633644,231.857315 51.158638,232.006729 50.870964,232.032562 
	C50.557606,232.060715 50.229671,231.926544 49.260372,231.735443 
	C51.720901,224.868210 54.148540,218.092773 56.716763,210.924973 
	C57.638371,211.653641 58.585773,212.223999 58.522259,212.378296 
	C56.129787,218.191193 60.518421,218.907059 64.260185,220.154709 
	C65.514160,220.572830 66.719734,221.136124 68.314102,221.766602 
z"/>
<path fill="#0F0F0F" opacity="1.000000" stroke="none" 
	d="
M306.686462,586.685181 
	C304.572388,587.117249 302.475250,587.785522 300.341125,587.938660 
	C292.713928,588.485901 286.824921,583.838501 286.195465,576.965393 
	C285.521301,569.603455 291.233551,562.690491 298.579254,561.978577 
	C308.668610,561.000793 315.977356,567.561157 316.182892,577.779785 
	C316.477875,592.445801 301.476685,604.774475 285.377655,601.514526 
	C295.863892,600.440186 303.056213,596.445801 307.625732,587.570801 
	C307.845032,586.757202 307.785461,586.498718 307.725861,586.240234 
	C307.379395,586.388550 307.032928,586.536865 306.686462,586.685181 
M300.530273,563.532654 
	C295.849579,563.839417 293.892609,567.033264 293.270142,571.033081 
	C292.549561,575.663513 292.457092,580.438843 296.488922,583.877319 
	C299.264191,586.244263 306.700623,585.612305 308.530334,583.131287 
	C312.666382,577.522949 308.209778,565.399963 300.530273,563.532654 
z"/>
<path fill="#0F0F0F" opacity="1.000000" stroke="none" 
	d="
M341.197571,576.391174 
	C347.310638,576.562744 352.089966,578.268494 354.100647,584.286560 
	C355.875671,589.599182 354.323029,595.560486 349.880890,599.161377 
	C345.086243,603.048096 339.694305,603.766602 334.026093,601.121643 
	C327.485016,598.069336 324.368591,592.700378 324.066315,585.661499 
	C323.518250,572.899963 337.548431,560.008484 351.834412,561.379822 
	C341.590179,563.667480 335.424225,568.979919 332.469025,578.544067 
	C335.555756,577.765015 338.174622,577.104004 341.197571,576.391174 
M348.159790,587.528503 
	C347.326691,585.745972 346.946472,583.062195 345.566193,582.368530 
	C342.693878,580.925110 339.288818,579.937500 336.109039,579.954468 
	C334.413635,579.963501 331.619934,582.208618 331.247772,583.874695 
	C330.037964,589.290833 331.426300,594.533203 335.305725,598.637878 
	C339.553619,603.132385 346.587128,601.191528 348.111145,595.144531 
	C348.656433,592.980835 348.295105,590.588562 348.159790,587.528503 
z"/>
<path fill="#070707" opacity="1.000000" stroke="none" 
	d="
M230.849579,554.374268 
	C233.662491,560.923157 236.455246,567.074158 238.921219,572.505432 
	C230.980804,570.456238 223.257339,573.943420 215.759415,580.829102 
	C216.949051,571.084839 213.819397,564.046875 205.665085,558.003174 
	C215.587952,558.769714 223.164902,555.942993 229.720673,548.989807 
	C230.164261,550.984741 230.496857,552.480530 230.849579,554.374268 
z"/>
<path fill="#070707" opacity="1.000000" stroke="none" 
	d="
M409.578064,565.381897 
	C411.149384,560.346802 412.499847,555.622986 414.012726,550.331116 
	C416.554077,552.047668 419.403381,554.400696 422.620758,556.024292 
	C425.807343,557.632446 429.365051,558.505188 431.768707,559.351501 
	C429.933044,566.593445 428.062714,573.972168 426.205170,581.300476 
	C421.149841,574.902954 413.584167,571.521301 404.332611,571.242737 
	C406.278961,569.093079 407.818115,567.393127 409.578064,565.381897 
z"/>
<path fill="#0E0E0E" opacity="1.000000" stroke="none" 
	d="
M383.808258,592.789856 
	C389.246490,582.518250 384.795929,577.472107 369.958435,577.868652 
	C372.124878,576.228455 373.927856,574.965759 375.615143,573.563843 
	C378.712646,570.990051 380.465820,567.762573 378.171753,563.976990 
	C375.886810,560.206421 371.831879,559.981567 368.466522,561.707153 
	C365.464233,563.246704 363.169220,566.165405 360.841705,568.227783 
	C361.528442,559.886963 371.969727,553.744751 379.731598,557.634583 
	C385.269928,560.410095 385.414337,565.039368 380.168213,571.632324 
	C392.422119,577.440857 394.028564,584.450623 384.677124,593.295166 
	C384.074982,593.088440 383.941620,592.939148 383.808258,592.789856 
z"/>
<path fill="#0D0D0D" opacity="1.000000" stroke="none" 
	d="
M256.354431,593.424988 
	C258.924072,584.059814 261.092865,574.895569 263.428009,565.773926 
	C264.209747,562.720093 264.415741,560.364746 260.083313,559.751343 
	C263.529907,559.039856 266.976471,558.328308 271.323425,557.430908 
	C269.599182,565.573181 267.934845,573.099121 266.428925,580.656616 
	C265.362366,586.009155 264.510040,591.404419 263.501495,597.124084 
	C260.155975,596.416321 255.891296,595.514099 251.626633,594.611877 
	C251.640533,594.440552 251.654449,594.269226 251.668365,594.097900 
	C253.118423,593.946106 254.568481,593.794373 256.354431,593.424988 
z"/>
<path fill="#191919" opacity="1.000000" stroke="none" 
	d="
M382.054993,595.161255 
	C378.381653,596.396118 374.769043,597.913940 371.004150,598.722229 
	C369.562347,599.031677 367.732819,597.801819 366.185516,597.054810 
	C365.962708,596.947266 366.156586,595.029724 366.461884,594.935547 
	C367.953949,594.475098 369.544342,594.183838 371.108887,594.138306 
	C374.469879,594.040222 377.836304,594.129639 381.614502,594.372131 
	C382.037323,594.788452 382.046173,594.974854 382.054993,595.161255 
z"/>
<path fill="#0E0E0E" opacity="1.000000" stroke="none" 
	d="
M382.352417,595.123413 
	C382.046173,594.974854 382.037323,594.788452 382.021088,594.322144 
	C382.430115,593.669922 382.846558,593.297668 383.535645,592.857666 
	C383.941620,592.939148 384.074982,593.088440 384.388489,593.478271 
	C383.929047,594.174316 383.289459,594.629944 382.352417,595.123413 
z"/>
<path fill="#FDC804" opacity="1.000000" stroke="none" 
	d="
M437.066864,248.907089 
	C438.916931,268.095673 440.751221,286.826111 442.532776,305.561554 
	C442.637177,306.659515 442.729828,308.142059 442.129120,308.864624 
	C435.752563,316.534332 428.574432,323.059326 418.302368,325.110321 
	C414.599487,325.849701 413.298981,324.429871 412.061920,320.944122 
	C408.961853,312.209106 405.622070,303.488586 401.440338,295.237732 
	C399.347778,291.108948 395.631958,287.464355 391.893402,284.582855 
	C385.292206,279.494965 378.734955,280.867889 374.738892,288.218994 
	C372.580322,292.189880 371.343079,296.897552 370.712921,301.415497 
	C369.285034,311.653259 370.879486,321.618195 374.799133,331.232452 
	C380.518280,345.260651 398.793762,353.392517 413.565094,346.133331 
	C431.992004,337.077667 446.620148,323.934631 458.744293,307.666656 
	C459.725891,306.349548 460.688812,305.018524 462.090881,303.107147 
	C469.615417,310.967651 477.002869,318.545288 484.157562,326.336700 
	C485.045776,327.303986 485.075104,329.458099 484.867004,330.975067 
	C480.817535,360.495697 476.645203,389.999420 472.569061,419.516418 
	C471.567047,426.772461 471.068207,434.106812 469.819092,441.315277 
	C469.349060,444.027679 468.004791,447.134094 466.034790,448.949127 
	C456.095398,458.106842 443.917419,460.490692 430.091125,459.706635 
	C434.723755,448.306183 439.194214,437.304810 443.636597,426.372559 
	C444.063202,426.230865 444.432892,425.962738 444.664032,426.052307 
	C453.116364,429.326782 456.498779,427.453796 458.168823,418.511993 
	C458.443481,417.041290 458.804169,415.551727 458.806885,414.070312 
	C458.847656,391.746277 458.835175,369.422119 458.835175,346.022064 
	C458.029938,348.078247 457.536133,349.282837 457.083740,350.502808 
	C446.785278,378.272339 436.348877,406.028687 420.777557,431.374146 
	C408.820465,450.836792 395.495575,469.406708 379.016022,485.401672 
	C373.762848,490.500397 367.738190,494.804230 362.066528,499.471741 
	C361.781097,499.153320 361.495636,498.834900 361.210205,498.516449 
	C363.837830,494.180878 366.456543,489.839844 369.094696,485.510712 
	C376.633881,473.139252 379.895020,459.543762 381.014465,445.235565 
	C383.703705,410.863342 368.148071,383.602234 346.446472,359.371399 
	C325.781219,336.297729 303.833496,314.373047 282.470032,291.923737 
	C280.869965,290.242310 279.433990,288.404724 277.727020,286.412506 
	C292.775055,262.076996 310.288422,240.321060 336.617279,227.546158 
	C362.384918,215.043549 388.345856,215.661026 414.166107,227.727386 
	C415.791962,228.487183 417.383881,229.319748 418.549347,229.898743 
	C423.141907,222.697479 427.549225,215.786743 431.956543,208.875992 
	C432.408508,209.028183 432.860504,209.180389 433.312500,209.332596 
	C434.554810,222.371750 435.797150,235.410904 437.066864,248.907089 
z"/>
<path fill="#FDC804" opacity="1.000000" stroke="none" 
	d="
M343.193176,95.789604 
	C358.307281,97.388016 372.576294,100.421837 386.063629,106.389565 
	C385.989227,106.795860 385.914825,107.202148 385.840393,107.608444 
	C379.937347,107.012138 374.008942,106.599625 368.135376,105.789627 
	C330.736877,100.632133 299.801300,112.872749 275.490479,141.245712 
	C244.126389,177.850494 237.437805,219.566910 251.915848,265.043335 
	C256.603027,279.766113 266.620697,290.954193 277.363159,301.545746 
	C294.206329,318.152313 311.240601,334.569824 327.861237,351.396027 
	C345.784088,369.540558 360.973022,389.631775 369.583099,414.031525 
	C381.381439,447.466217 372.003601,476.022705 349.326019,501.469604 
	C348.658783,502.218353 347.581970,502.602081 345.716492,503.768463 
	C348.363678,498.807068 350.477631,494.956451 352.490906,491.053833 
	C366.198853,464.481476 362.439148,436.389160 340.322052,416.353729 
	C326.973114,404.261230 311.528809,394.425507 296.702423,384.037567 
	C284.176941,375.261627 271.302765,366.965210 258.371399,358.791138 
	C241.175934,347.921844 226.190308,334.572906 213.430450,318.840118 
	C196.906143,298.465790 184.914093,275.631317 181.826248,249.344498 
	C179.421448,228.872360 183.014709,208.613541 187.386948,188.477737 
	C197.007355,144.172363 244.260742,105.514587 284.124146,98.884514 
	C303.628723,95.640511 323.034210,93.687988 343.193176,95.789604 
z"/>
<path fill="#FDC804" opacity="1.000000" stroke="none" 
	d="
M225.299744,119.300026 
	C223.685272,120.947517 222.158401,122.692909 220.443359,124.228035 
	C187.037872,154.129257 169.794327,191.585541 172.530182,236.267334 
	C175.057785,277.548370 192.445007,312.843323 223.405655,340.932678 
	C244.577850,360.141388 268.487000,375.438141 292.690430,390.459808 
	C306.492249,399.025787 320.055511,408.366943 332.258057,419.037872 
	C357.961243,441.514862 355.590576,471.839081 342.041809,495.735382 
	C340.381195,498.664154 337.822601,501.083801 335.148560,503.294708 
	C338.330658,488.540588 336.709595,474.519562 331.919403,460.905792 
	C329.209015,453.202789 323.535217,447.536469 316.732300,442.871887 
	C299.069275,430.760773 278.997498,424.216278 259.150696,416.960724 
	C241.859863,410.639557 224.455185,404.311829 207.947693,396.252380 
	C190.302780,387.637665 176.246216,373.944122 162.790619,359.636200 
	C144.610733,340.304688 132.629974,318.031525 127.868881,291.933655 
	C118.941788,243.000031 129.974304,199.848709 164.947845,163.526459 
	C182.302170,145.502884 201.742783,130.308212 224.360565,118.680161 
	C225.018112,118.974678 225.158920,119.137352 225.299744,119.300026 
z"/>
<path fill="#FDC704" opacity="1.000000" stroke="none" 
	d="
M231.889984,417.148773 
	C244.613327,421.180023 256.981903,425.045502 269.312042,429.029907 
	C285.210907,434.167419 300.546661,440.563354 313.829041,450.942352 
	C329.886353,463.489685 331.899841,480.813812 328.930573,499.233246 
	C327.628632,507.309540 321.438934,513.868774 315.578247,515.868896 
	C315.449799,515.617920 315.145264,515.281616 315.219391,515.127502 
	C320.830170,503.462860 318.774414,493.297882 308.825562,484.568817 
	C301.729340,478.342590 293.312805,474.959503 283.990814,473.909119 
	C256.034454,470.759033 228.144608,467.325806 201.065033,459.181305 
	C144.522156,442.175232 113.006409,403.039337 102.581581,346.230652 
	C98.744049,325.318542 101.045685,303.911896 104.617599,283.048035 
	C107.241104,267.723846 111.982216,252.756592 115.932785,237.670395 
	C116.633690,234.993835 118.086121,232.514069 120.034805,230.110123 
	C119.368774,234.515137 118.698944,238.919586 118.037323,243.325256 
	C114.369652,267.748138 118.484222,291.356537 125.196381,314.771179 
	C131.632553,337.223083 145.665268,354.639252 160.855911,371.668182 
	C180.300232,393.465607 204.818542,406.819183 231.889984,417.148773 
z"/>
<path fill="#FDC704" opacity="1.000000" stroke="none" 
	d="
M131.263855,423.728546 
	C157.626923,455.753204 193.068390,470.144867 232.177856,476.840515 
	C250.511642,479.979340 269.204803,481.022400 287.736938,482.998016 
	C294.898987,483.761536 301.308380,485.814209 305.974945,491.901031 
	C312.719727,500.698425 311.663177,511.772339 302.876892,518.763062 
	C292.981506,526.636169 281.084015,527.984375 269.016785,528.845825 
	C253.923599,529.923218 240.759857,524.051086 227.569199,517.966553 
	C189.251068,500.291138 159.122452,472.891907 134.590393,439.085602 
	C129.738876,432.399963 126.803879,424.323578 122.985046,416.888519 
	C123.489914,416.605103 123.994789,416.321686 124.499657,416.038269 
	C126.675842,418.513947 128.852020,420.989655 131.263855,423.728546 
z"/>
<path fill="#F9C404" opacity="1.000000" stroke="none" 
	d="
M327.628754,139.550903 
	C329.768982,135.812225 331.681763,132.353561 333.993835,128.172989 
	C336.657654,140.129089 342.825470,148.640808 355.821198,152.951248 
	C342.905762,155.502563 335.090759,162.282104 331.091431,174.824417 
	C326.901672,163.488754 321.419373,154.675369 311.897644,151.170227 
	C316.830231,147.562561 322.115784,143.696732 327.628754,139.550903 
z"/>
<path fill="#FDC804" opacity="1.000000" stroke="none" 
	d="
M224.691650,118.548019 
	C224.952881,118.517433 225.399765,118.750824 225.573212,119.142120 
	C225.158920,119.137352 225.018112,118.974678 224.691650,118.548019 
z"/>
<path fill="#FBFBFB" opacity="1.000000" stroke="none" 
	d="
M509.317871,479.461121 
	C511.593658,476.802979 513.651733,474.447449 516.057373,471.694031 
	C524.655518,479.167175 532.955444,486.381165 541.190613,493.538788 
	C533.845947,506.596954 524.522461,510.841705 515.515991,505.507721 
	C505.280792,499.446045 502.894318,489.870178 509.317871,479.461121 
z"/>
<path fill="#FBFBFB" opacity="1.000000" stroke="none" 
	d="
M175.256775,82.274269 
	C182.933929,84.992981 187.213547,90.544418 189.812851,97.450928 
	C192.165131,103.701126 190.541534,108.773819 185.425079,112.990601 
	C179.878448,117.561928 174.110703,118.339233 168.409348,115.035095 
	C162.878082,111.829536 159.082703,107.012268 157.119949,101.002235 
	C153.792221,90.812561 162.814529,81.351051 175.256775,82.274269 
z"/>
<path fill="#FBFBFB" opacity="1.000000" stroke="none" 
	d="
M580.366211,372.938904 
	C577.841919,372.421539 575.686279,372.112976 573.673767,371.400269 
	C566.585388,368.889954 563.642883,364.457550 563.946655,357.063812 
	C564.253540,349.594055 567.892029,344.420197 574.935120,343.062439 
	C579.044250,342.270264 583.532715,342.357819 587.676941,343.065613 
	C595.848389,344.461334 600.037476,349.960876 599.652649,357.628265 
	C599.201050,366.626099 594.245178,372.113953 585.774963,372.901733 
	C584.129211,373.054779 582.459290,372.948853 580.366211,372.938904 
z"/>
<path fill="#F0F0F0" opacity="1.000000" stroke="none" 
	d="
M484.981934,533.860962 
	C485.259888,535.541138 485.488037,536.813293 485.839508,538.772949 
	C480.833435,536.276184 476.330994,534.030640 470.940155,531.341919 
	C474.910950,528.337708 478.452637,525.658203 482.533691,522.570618 
	C483.419617,526.590332 484.175873,530.021667 484.981934,533.860962 
z"/>
<path fill="#EEEEEE" opacity="1.000000" stroke="none" 
	d="
M520.891846,149.854446 
	C525.338196,148.929855 529.380371,148.074417 534.393066,147.013596 
	C531.716003,152.296051 529.391541,156.882797 526.774231,162.047379 
	C524.109253,158.495621 521.772827,155.528519 519.665527,152.406738 
	C519.367493,151.965240 520.185913,150.769989 520.891846,149.854446 
z"/>
<path fill="#F9F9F9" opacity="1.000000" stroke="none" 
	d="
M300.941406,563.569336 
	C308.209778,565.399963 312.666382,577.522949 308.530334,583.131287 
	C306.700623,585.612305 299.264191,586.244263 296.488922,583.877319 
	C292.457092,580.438843 292.549561,575.663513 293.270142,571.033081 
	C293.892609,567.033264 295.849579,563.839417 300.941406,563.569336 
z"/>
<path fill="#FCFCFC" opacity="1.000000" stroke="none" 
	d="
M306.910126,586.896240 
	C307.032928,586.536865 307.379395,586.388550 307.725861,586.240234 
	C307.785461,586.498718 307.845032,586.757202 307.758820,587.254211 
	C307.453247,587.364197 307.293518,587.235718 306.910126,586.896240 
z"/>
<path fill="#F8F8F8" opacity="1.000000" stroke="none" 
	d="
M348.253662,587.914551 
	C348.295105,590.588562 348.656433,592.980835 348.111145,595.144531 
	C346.587128,601.191528 339.553619,603.132385 335.305725,598.637878 
	C331.426300,594.533203 330.037964,589.290833 331.247772,583.874695 
	C331.619934,582.208618 334.413635,579.963501 336.109039,579.954468 
	C339.288818,579.937500 342.693878,580.925110 345.566193,582.368530 
	C346.946472,583.062195 347.326691,585.745972 348.253662,587.914551 
z"/>
</svg>